<svg width="115" height="35" viewBox="0 0 115 35" fill="none" xmlns="http://www.w3.org/2000/svg">
<path d="M108.585 23.0414C108.585 22.6973 108.585 22.3478 108.585 21.9982C108.585 21.6702 108.59 21.3476 108.59 21.025V20.8368V12.959C108.59 11.7707 107.627 10.8081 106.437 10.8081H92.5519C91.3625 10.8081 90.3991 11.7707 90.3991 12.959V20.8368C90.3991 21.4067 90.6251 21.9499 91.0342 22.3531C91.6208 22.9393 92.3474 22.9877 92.5573 22.9877C95.6465 22.9984 99.1501 22.993 101.707 22.9877C102.831 22.9877 103.962 22.9877 105.086 22.9877C104.85 23.5254 104.613 24.0685 104.376 24.6062C103.488 24.6062 102.595 24.6009 101.707 24.6009C100.232 24.6009 98.4397 24.6062 96.5937 24.6062C95.2429 24.6062 93.8597 24.6062 92.5519 24.6009C92.0837 24.6009 90.8889 24.4879 89.8932 23.4985C89.1774 22.7833 88.7899 21.8423 88.7899 20.8368V12.959C88.7899 10.8834 90.4798 9.19495 92.5573 9.19495H106.443C108.52 9.19495 110.21 10.8834 110.21 12.959V21.0196C110.237 21.4659 110.226 22.1273 109.995 22.8855C109.855 23.3426 109.672 23.7136 109.5 23.9986" fill="#A9AAA1"/>
<path d="M110.097 28.3057L103.235 23.8694C103.849 23.5737 104.468 23.2779 105.081 22.9876C106.233 23.7834 107.385 24.5792 108.536 25.3751C108.547 24.2243 108.563 23.0682 108.574 21.9175C109.118 21.8476 109.656 21.7777 110.199 21.7078C110.167 23.9125 110.129 26.1118 110.097 28.3057Z" fill="#A9AAA1"/>
<path d="M8.14687 16.4721V27.6924H5.10868V16.4721H8.14687ZM9.83476 14.7856H3.42079V29.3788H9.82913V14.7856H9.83476Z" fill="#A9AAA1"/>
<path d="M19.692 9.02907C19.7089 9.02907 19.7201 9.02907 19.7314 9.03469C19.8664 9.05718 20.0521 9.26517 20.1534 9.45068C20.3784 9.87228 20.204 10.5131 19.9564 11.3114C19.5739 12.5143 18.8818 13.6161 17.8916 14.5943C17.3402 15.1395 17.1714 15.9603 17.4584 16.6798C17.7453 17.3993 18.4373 17.8772 19.2138 17.8884C21.2336 17.9221 22.7246 17.939 23.9174 17.939C24.6769 17.939 25.3014 17.9334 25.8303 17.9165C25.8472 17.9165 25.8753 17.9165 25.8978 17.9165C25.9597 17.9165 26.0385 17.9221 26.1116 17.9502C26.2804 18.0233 26.4773 18.2707 26.6405 18.6248C26.8712 19.1251 27.0006 19.7322 27.0681 20.0583C27.3944 21.6042 27.3663 23.5323 26.9893 25.0894C26.6236 26.6241 26.0497 27.3661 25.639 27.5685C25.4083 27.5853 24.8851 27.6078 24.3281 27.6303C22.9834 27.6865 22.0438 27.6865 21.2167 27.6865H21.0986H20.9804C20.7554 27.6865 20.5247 27.6865 20.2884 27.6865C18.4599 27.6921 14.2289 27.7484 13.3568 27.7652H13.3456C13.3231 27.7652 13.2949 27.7652 13.2612 27.7596V16.0615C14.7127 15.2801 16.0012 14.212 17.0139 12.9416C17.7903 11.9634 18.4148 10.8729 18.8593 9.69802C19.1013 9.25955 19.4613 9.02907 19.692 9.02907ZM19.692 7.34265C18.7862 7.34265 17.841 7.96663 17.3233 8.99534C17.3177 9.00659 17.3177 9.01221 17.3121 9.02345C17.0252 9.80483 16.5357 10.8392 15.6973 11.8904C14.3189 13.6161 12.6929 14.5099 11.7196 14.9428C11.6352 14.9821 11.5789 15.0665 11.5789 15.162V29.1425C11.6239 29.2155 11.7027 29.3167 11.8208 29.3842C11.9277 29.4404 12.0346 29.4573 12.1359 29.4573C12.2259 29.4573 12.3047 29.446 12.3666 29.4348C12.4454 29.4235 12.5297 29.4179 12.6085 29.4179C12.8561 29.4179 13.1036 29.4573 13.3512 29.4573C13.3681 29.4573 13.3793 29.4573 13.3962 29.4573C14.2964 29.4348 18.533 29.3842 20.294 29.3786C20.5303 29.3786 20.761 29.3786 20.9804 29.3786C21.0592 29.3786 21.1436 29.3786 21.2224 29.3786C22.1676 29.3786 23.0734 29.3786 24.4012 29.3223C25.4252 29.283 25.9372 29.2605 26.0891 29.2099C28.6153 28.3779 29.4761 23.2793 28.7222 19.7154C28.5309 18.8103 28.1146 16.9609 26.7643 16.3987C26.4154 16.2526 26.1004 16.2357 25.9034 16.2357C25.8584 16.2357 25.819 16.2357 25.7853 16.2357C25.262 16.247 24.6375 16.2582 23.9174 16.2582C22.6514 16.2582 21.0873 16.2413 19.2419 16.2076C19.0281 16.202 18.9268 15.949 19.0787 15.7972C19.9846 14.8978 21.0086 13.588 21.5656 11.8229C21.8694 10.8617 22.2126 9.72051 21.6443 8.65806C21.5318 8.45569 21.0142 7.55626 20.0296 7.382C19.9171 7.34827 19.8045 7.34265 19.692 7.34265Z" fill="#A9AAA1"/>
<path d="M69.0412 10.197V21.4174H66.0087V10.197H69.0412ZM70.7291 8.51062H64.3208V23.1038H70.7291V8.51062Z" fill="#A9AAA1"/>
<path d="M60.8044 10.1183C60.8269 10.1183 60.855 10.1183 60.8888 10.1239V21.8277C59.4372 22.6091 58.1488 23.6771 57.136 24.9476C56.3596 25.9257 55.7351 27.0163 55.2906 28.1911C55.0487 28.624 54.6886 28.8601 54.4579 28.8601C54.4411 28.8601 54.4298 28.8601 54.4129 28.8545C54.2779 28.832 54.0922 28.624 53.991 28.4385C53.7659 28.0169 53.9403 27.376 54.1879 26.5778C54.5705 25.3748 55.2625 24.273 56.2527 23.2949C56.8041 22.7496 56.9729 21.9289 56.6859 21.2093C56.399 20.4898 55.707 20.012 54.9305 20.0007C52.9107 19.967 51.4197 19.9501 50.227 19.9501C49.4674 19.9501 48.8429 19.9558 48.314 19.9726C48.2972 19.9726 48.269 19.9726 48.2465 19.9726C48.1846 19.9726 48.1059 19.967 48.0327 19.9389C47.8639 19.8658 47.667 19.6185 47.5038 19.2643C47.2732 18.764 47.1438 18.1569 47.0762 17.8309C46.7499 16.285 46.7781 14.3568 47.155 12.7997C47.5207 11.2651 48.0946 10.523 48.5053 10.3207C48.736 10.3038 49.2592 10.2813 49.8162 10.2588C51.1609 10.2026 52.1005 10.2026 52.9276 10.2026H53.0457H53.1639C53.3889 10.2026 53.6196 10.2026 53.8559 10.2026C55.6845 10.197 59.9154 10.1408 60.7875 10.1239L60.8044 10.1183ZM60.8044 8.43188C60.7875 8.43188 60.7763 8.43188 60.7594 8.43188C59.8592 8.45437 55.6226 8.50496 53.8616 8.51058C53.6252 8.51058 53.3946 8.51058 53.1751 8.51058C53.0964 8.51058 53.012 8.51058 52.9332 8.51058C51.988 8.51058 51.0822 8.51058 49.7544 8.5668C48.7304 8.60615 48.2184 8.62863 48.0665 8.67923C45.5346 9.51682 44.6794 14.6098 45.4277 18.1794C45.619 19.0845 46.0354 20.9339 47.3857 21.496C47.7345 21.6422 48.0496 21.6591 48.2465 21.6591C48.2915 21.6591 48.3309 21.6591 48.3647 21.6591C48.8879 21.6478 49.5124 21.6366 50.2326 21.6366C51.4985 21.6366 53.0626 21.6534 54.908 21.6872C55.1218 21.6928 55.2231 21.9458 55.0712 22.0975C54.1654 22.997 53.1414 24.3067 52.5844 26.0719C52.2806 27.0331 51.9374 28.1743 52.5056 29.2367C52.6181 29.4391 53.1358 30.3385 54.1204 30.5128C54.2329 30.5296 54.3398 30.5409 54.4523 30.5409C55.3581 30.5409 56.3034 29.9169 56.821 28.8882C56.8266 28.8769 56.8266 28.8713 56.8322 28.8601C57.1192 28.0787 57.6087 27.0444 58.447 25.9932C59.8254 24.2674 61.4514 23.3736 62.4248 22.9407C62.5092 22.9014 62.5654 22.8171 62.5654 22.7215V8.74668C62.5204 8.67361 62.4416 8.57242 62.3235 8.50496C62.2166 8.44875 62.1097 8.43188 62.0084 8.43188C61.9184 8.43188 61.8396 8.44313 61.7777 8.45437C61.699 8.46561 61.6146 8.47123 61.5358 8.47123C61.2995 8.47123 61.0519 8.43188 60.8044 8.43188Z" fill="#A9AAA1"/>
</svg>
