<svg width="14" height="14" viewBox="0 0 14 14" fill="none" xmlns="http://www.w3.org/2000/svg">
<path d="M11.3458 4.40517V9.25235H10.0357V4.40517H11.3458ZM12.075 3.67664H9.30658V9.98089H12.075V3.67664Z" fill="#A9AAA1"/>
<path d="M7.7875 4.37111C7.79722 4.37111 7.80937 4.37111 7.82396 4.37354V9.42957C7.19687 9.76712 6.64028 10.2285 6.20278 10.7774C5.86736 11.1999 5.59757 11.671 5.40555 12.1786C5.30104 12.3656 5.14548 12.4676 5.04583 12.4676C5.03854 12.4676 5.03368 12.4676 5.02639 12.4651C4.96805 12.4554 4.88784 12.3656 4.84409 12.2854C4.74687 12.1033 4.82222 11.8264 4.92916 11.4816C5.09444 10.9619 5.3934 10.4859 5.82118 10.0634C6.05937 9.82784 6.13229 9.47328 6.00833 9.16244C5.88437 8.8516 5.58541 8.64518 5.25 8.64032C4.37743 8.62575 3.73333 8.61847 3.21805 8.61847C2.88993 8.61847 2.62014 8.6209 2.39166 8.62818C2.38437 8.62818 2.37222 8.62818 2.3625 8.62818C2.33576 8.62818 2.30173 8.62575 2.27014 8.61361C2.19722 8.58204 2.11215 8.47519 2.04166 8.3222C1.94201 8.10607 1.88611 7.84379 1.85694 7.70294C1.71597 7.03512 1.72812 6.20216 1.89097 5.52948C2.04895 4.86652 2.29687 4.54596 2.4743 4.45854C2.57395 4.45125 2.8 4.44154 3.04062 4.43182C3.62152 4.40754 4.02743 4.40754 4.38472 4.40754H4.43576H4.4868C4.58402 4.40754 4.68368 4.40754 4.78576 4.40754C5.57569 4.40511 7.40347 4.38083 7.78021 4.37354L7.7875 4.37111ZM7.7875 3.64258C7.78021 3.64258 7.77534 3.64258 7.76805 3.64258C7.37916 3.65229 5.54896 3.67415 4.78819 3.67658C4.68611 3.67658 4.58646 3.67658 4.49166 3.67658C4.45764 3.67658 4.42118 3.67658 4.38715 3.67658C3.97882 3.67658 3.5875 3.67658 3.01389 3.70086C2.57152 3.71786 2.35034 3.72757 2.28472 3.74943C1.19097 4.11127 0.821524 6.31144 1.14479 7.85351C1.22743 8.24449 1.40729 9.04345 1.99062 9.28629C2.14132 9.34943 2.27743 9.35672 2.3625 9.35672C2.38194 9.35672 2.39895 9.35672 2.41354 9.35672C2.63958 9.35186 2.90937 9.347 3.22048 9.347C3.76736 9.347 4.44305 9.35429 5.24027 9.36886C5.33264 9.37129 5.37639 9.48057 5.31076 9.54614C4.91944 9.93469 4.47708 10.5005 4.23646 11.263C4.10521 11.6783 3.95694 12.1713 4.20243 12.6303C4.25104 12.7177 4.47465 13.1062 4.9 13.1815C4.94861 13.1888 4.99479 13.1937 5.0434 13.1937C5.43472 13.1937 5.84305 12.9241 6.06666 12.4797C6.06909 12.4748 6.06909 12.4724 6.07153 12.4676C6.19548 12.13 6.40694 11.6832 6.76909 11.229C7.36458 10.4835 8.06701 10.0974 8.4875 9.9104C8.52396 9.8934 8.54826 9.85698 8.54826 9.81569V3.77857C8.52882 3.747 8.49479 3.70329 8.44375 3.67415C8.39757 3.64986 8.35139 3.64258 8.30764 3.64258C8.26875 3.64258 8.23472 3.64743 8.20798 3.65229C8.17396 3.65715 8.1375 3.65958 8.10347 3.65958C8.00139 3.65958 7.89444 3.64258 7.7875 3.64258Z" fill="#A9AAA1"/>
</svg>
