<svg width="18" height="15" viewBox="0 0 18 15" fill="none" xmlns="http://www.w3.org/2000/svg">
<path d="M4.28794 6.16071C3.84262 6.16071 3.48436 6.51897 3.48436 6.96429C3.48436 7.4096 3.84262 7.76786 4.28794 7.76786C4.73325 7.76786 5.09151 7.4096 5.09151 6.96429C5.09151 6.51897 4.73325 6.16071 4.28794 6.16071ZM8.57365 6.16071C8.12834 6.16071 7.77008 6.51897 7.77008 6.96429C7.77008 7.4096 8.12834 7.76786 8.57365 7.76786C9.01896 7.76786 9.37722 7.4096 9.37722 6.96429C9.37722 6.51897 9.01896 6.16071 8.57365 6.16071ZM12.8594 6.16071C12.4141 6.16071 12.0558 6.51897 12.0558 6.96429C12.0558 7.4096 12.4141 7.76786 12.8594 7.76786C13.3047 7.76786 13.6629 7.4096 13.6629 6.96429C13.6629 6.51897 13.3047 6.16071 12.8594 6.16071ZM8.57365 0C3.83928 0 0.00222215 3.11719 0.00222215 6.96429C0.00222215 8.55804 0.668517 10.0179 1.77343 11.1931C1.27454 12.5123 0.236597 13.6306 0.219856 13.644C-0.00112606 13.8783 -0.0613939 14.2199 0.0658382 14.5145C0.19307 14.8092 0.484365 15 0.805793 15C2.86494 15 4.48883 14.1395 5.46316 13.4498C6.43079 13.7545 7.47544 13.9286 8.57365 13.9286C13.308 13.9286 17.1451 10.8114 17.1451 6.96429C17.1451 3.11719 13.308 0 8.57365 0ZM8.57365 12.8571C7.62611 12.8571 6.68861 12.7132 5.78794 12.4286L5.27901 12.2679L4.84374 12.5759C4.07365 13.1217 2.88503 13.7578 1.40847 13.9018C1.81026 13.3962 2.40624 12.5491 2.77454 11.5714L3.01227 10.9453L2.55356 10.4565C1.58593 9.43192 1.07365 8.22321 1.07365 6.96429C1.07365 3.71652 4.43861 1.07143 8.57365 1.07143C12.7087 1.07143 16.0736 3.71652 16.0736 6.96429C16.0736 10.2121 12.7087 12.8571 8.57365 12.8571Z" fill="#B3A25D"/>
</svg>
