<svg width="20" height="20" viewBox="0 0 20 20" fill="none" xmlns="http://www.w3.org/2000/svg">
<g clip-path="url(#clip0_631_16297)">
<path d="M9.0313 17.3159C9.02089 17.3159 9.00353 17.3124 8.98269 17.3124C7.95492 17.2256 7.17714 16.8263 6.53478 16.4826C6.28825 16.3506 5.91672 16.1458 5.46533 15.8194C4.86811 15.3854 3.62158 14.4791 2.90978 12.7743C2.59728 12.0277 2.42714 11.2256 2.40283 10.3958V10.3854V10.3749C2.41672 9.25689 2.43408 8.42008 2.44797 7.60758C2.46186 6.79856 2.47575 5.96175 2.49311 4.84717L2.49658 4.51383L2.80214 4.37842C3.48269 4.07981 4.11811 3.73258 4.72922 3.39578C5.18755 3.14578 5.61811 2.90967 6.06603 2.69092C6.59728 2.43397 6.9688 2.2187 7.44797 1.9687C7.83686 1.76731 8.37158 1.48953 9.02436 1.15967C9.10769 1.50689 9.1945 1.85411 9.27783 2.20133C8.88894 2.368 8.43061 2.618 7.9445 2.88189C7.51742 3.11453 7.0313 3.37842 6.51742 3.62495C6.0938 3.82981 5.67367 4.05897 5.22575 4.3055C4.68408 4.60064 4.12505 4.9062 3.52436 5.18745C3.51047 6.14578 3.49658 6.89578 3.48617 7.62147C3.47228 8.42703 3.45839 9.26036 3.44103 10.3715C3.46186 11.0694 3.60422 11.7395 3.86464 12.3645C4.46533 13.7986 5.51047 14.559 6.07297 14.9687C6.44103 15.2361 6.75005 15.4097 6.9445 15.5138C7.37505 15.7534 7.90978 15.9895 8.54519 16.1388C8.70144 16.177 8.85422 16.2048 9.00005 16.2291C9.01742 16.5972 9.02436 16.9548 9.0313 17.3159Z" fill="black"/>
<path d="M9.03136 17.3158C8.99316 16.9755 8.95497 16.6352 8.91678 16.2949C10.0557 16.0866 11.0973 15.6421 12.0105 14.979C12.573 14.5692 13.6182 13.8088 14.2189 12.3748C14.4793 11.7498 14.6251 11.0796 14.6425 10.3817C14.6286 9.27062 14.6112 8.43728 14.5973 7.6352C14.5834 6.90603 14.5696 6.15603 14.5591 5.1977C13.955 4.91645 13.3994 4.61089 12.8577 4.31576C12.4098 4.0727 11.9897 3.84006 11.5661 3.6352C11.0522 3.3852 10.5661 3.12478 10.139 2.89214C9.65289 2.62826 9.19455 2.37826 8.80566 2.21159C8.88205 1.86437 8.95497 1.51714 9.03136 1.16992C9.7015 1.49978 10.2466 1.77756 10.6355 1.97895C10.9793 2.15603 11.3126 2.36089 12.0175 2.70117C12.4654 2.91645 12.8959 3.15256 13.3543 3.40603C13.9689 3.74284 14.6008 4.08659 15.2814 4.38867L15.5869 4.52409L15.5904 4.85742C15.6043 5.97548 15.6216 6.81228 15.6355 7.62131C15.6494 8.43034 15.6633 9.26715 15.6807 10.3852V10.3956V10.406C15.6598 11.2359 15.4897 12.0345 15.1737 12.7845C14.4584 14.4894 13.2154 15.3921 12.6182 15.8296C12.1807 16.1456 11.7952 16.3644 11.5487 16.4928C10.5626 16.9963 9.65636 17.2116 9.03136 17.3158Z" fill="black"/>
<path d="M9.01038 2.11792V16.6631" stroke="black" stroke-miterlimit="10" stroke-linejoin="round"/>
</g>
<defs>
<clipPath id="clip0_631_16297">
<rect width="20" height="20" fill="white"/>
</clipPath>
</defs>
</svg>
