<svg width="20" height="21" viewBox="0 0 20 21" fill="none" xmlns="http://www.w3.org/2000/svg">
<path d="M11.4757 17.7847H11.6667H15.0174V5.28467H4.98267V17.7847H8.75003H8.92364" stroke="#B3A25D" stroke-miterlimit="10"/>
<path d="M15.0174 3.61792H4.98267V5.21167H15.0174V3.61792Z" stroke="#B3A25D" stroke-miterlimit="10"/>
<path d="M4.98267 8.65272C5.13544 8.67008 6.36461 8.78466 7.29864 7.84369C8.3299 6.79855 8.06253 5.39578 8.03823 5.28467" stroke="#B3A25D" stroke-miterlimit="10"/>
<path d="M15.0175 8.65272C14.8647 8.67008 13.6355 8.78466 12.7015 7.84369C11.6702 6.79855 11.9376 5.39578 11.9619 5.28467" stroke="#B3A25D" stroke-miterlimit="10"/>
<path d="M10.3076 11.221L10.35 11.4088L10.2547 11.1377C10.2765 11.1611 10.2945 11.1891 10.3076 11.221ZM8.6321 17.1682C8.67931 16.9885 8.72624 16.7874 8.77286 16.5708C8.73499 16.7928 8.69743 17.0046 8.66014 17.2023C8.65079 17.1909 8.64144 17.1796 8.6321 17.1682Z" fill="black" stroke="#B3A25D"/>
</svg>
