<svg width="294" height="23" viewBox="0 0 294 23" fill="none" xmlns="http://www.w3.org/2000/svg">
<g clip-path="url(#clip0_0_183)">
<path d="M5.625 3.3125C5.625 3.00172 5.37328 2.75 5.0625 2.75H3.9375C3.62672 2.75 3.375 3.00172 3.375 3.3125V6.125H0.5625C0.251719 6.125 0 6.37672 0 6.6875V7.8125C0 8.12328 0.251719 8.375 0.5625 8.375H3.375V16.25C3.375 16.8712 3.87879 17.375 4.5 17.375H11.25V15.125H5.625V3.3125ZM17.4375 15.125H14.625V7.25C14.625 6.62879 14.1212 6.125 13.5 6.125H6.75V8.375H12.375V20.1875C12.375 20.4983 12.6267 20.75 12.9375 20.75H14.0625C14.3733 20.75 14.625 20.4983 14.625 20.1875V17.375H17.4375C17.7483 17.375 18 17.1233 18 16.8125V15.6875C18 15.3767 17.7483 15.125 17.4375 15.125Z" fill="#282828"/>
</g>
<circle cx="82.5" cy="11.25" r="4.25" stroke="black" stroke-width="2"/>
<path d="M82.5 0.75V3.375" stroke="black" stroke-width="1.5" stroke-linecap="round"/>
<path d="M82.5 19.125V21.75" stroke="black" stroke-width="1.5" stroke-linecap="round"/>
<path d="M88.625 6.10596L90.4812 4.2498" stroke="black" stroke-width="1.5" stroke-linecap="round"/>
<path d="M74.625 19.231L76.4812 17.3748" stroke="black" stroke-width="1.5" stroke-linecap="round"/>
<path d="M74.625 4.25L76.4812 6.10616" stroke="black" stroke-width="1.5" stroke-linecap="round"/>
<path d="M88.625 17.375L90.4812 19.2312" stroke="black" stroke-width="1.5" stroke-linecap="round"/>
<path d="M90.375 11.25H93" stroke="black" stroke-width="1.5" stroke-linecap="round"/>
<path d="M72 11.25H74.625" stroke="black" stroke-width="1.5" stroke-linecap="round"/>
<circle cx="150" cy="11.75" r="7.5" stroke="black"/>
<path d="M157.5 11.75C157.5 15.7236 154.41 18.9754 150.502 19.2335L150.549 4.26979C154.435 4.55095 157.5 7.79254 157.5 11.75Z" fill="black" stroke="black"/>
<rect x="209.5" y="5.25" width="13" height="13" stroke="black"/>
<rect x="280.5" y="5.25" width="13" height="13" stroke="black"/>
<defs>
<clipPath id="clip0_0_183">
<rect width="18" height="18" fill="white" transform="translate(0 2.75)"/>
</clipPath>
</defs>
</svg>
