<svg width="37" height="37" viewBox="0 0 37 37" fill="none" xmlns="http://www.w3.org/2000/svg">
<path d="M31.8547 5.39999H3.29531C1.47603 5.39999 0 6.85012 0 8.63749V28.0625C0 29.8499 1.47603 31.3 3.29531 31.3H31.8547C33.674 31.3 35.15 29.8499 35.15 28.0625V8.63749C35.15 6.85012 33.674 5.39999 31.8547 5.39999ZM3.29531 7.55833H31.8547C32.4588 7.55833 32.9531 8.04395 32.9531 8.63749V11.4298C31.4496 12.6776 29.3008 14.3975 22.6141 19.6113C21.4539 20.5151 19.1677 22.6936 17.575 22.6667C15.9823 22.6936 13.6893 20.5151 12.5359 19.6113C5.84918 14.3975 3.70036 12.6776 2.19687 11.4298V8.63749C2.19687 8.04395 2.69117 7.55833 3.29531 7.55833ZM31.8547 29.1417H3.29531C2.69117 29.1417 2.19687 28.656 2.19687 28.0625V14.2357C3.76215 15.4969 6.23363 17.4462 11.1697 21.2975C12.5771 22.4036 15.0623 24.8385 17.575 24.825C20.0739 24.8452 22.5386 22.4306 23.9803 21.2975C28.9164 17.4462 31.3878 15.4969 32.9531 14.2357V28.0625C32.9531 28.656 32.4588 29.1417 31.8547 29.1417Z" fill="#B6B7AD"/>
</svg>
