<svg width="41" height="42" viewBox="0 0 41 42" fill="none" xmlns="http://www.w3.org/2000/svg">
<path d="M12.4541 13.3157L11.3939 12.8218L11.7695 13.9295L12.5 16.0843L12.5 16.0843L14.1484 20.9454L14.1487 20.9462L14.2482 21.2383L14.1489 21.5297L14.1487 21.5303L12.4302 26.5497L12.4301 26.5501L11.7838 28.4432L11.4042 29.5553L12.4688 29.0577L28.358 21.6304L29.3286 21.1767L28.3574 20.7243L12.4541 13.3157ZM13.7651 21.3998L13.82 21.239L13.7656 21.0781C13.1116 19.1438 12.4558 17.2104 11.8004 15.278C11.4361 14.2038 11.0719 13.13 10.7081 12.0565C17.2334 15.097 23.7585 18.1376 30.2799 21.1781C23.7599 24.2265 17.2363 27.2748 10.7125 30.3231C11.1573 29.0217 11.6026 27.7209 12.0481 26.4198L12.0487 26.4179L12.0491 26.4167C12.6215 24.745 13.1939 23.073 13.7651 21.3998Z" fill="black" stroke="#B6B7AD"/>
<path d="M13.2966 21.2385C18.3448 21.2198 23.393 21.1964 28.4365 21.1777" stroke="#B6B7AD" stroke-miterlimit="10"/>
</svg>
