<svg width="25" height="25" viewBox="0 0 25 25" fill="none" xmlns="http://www.w3.org/2000/svg">
<path d="M18.5614 6.44592C16.9437 4.82504 14.7893 3.93572 12.5 3.93572C10.211 3.93572 8.05675 4.82486 6.43913 6.44541C4.81716 8.06164 3.92708 10.2142 3.92708 12.5016C3.92708 14.7897 4.82191 16.9418 6.43863 18.5574C8.0563 20.1782 10.2107 21.0676 12.5 21.0676C14.7896 21.0676 16.9434 20.1737 18.5604 18.5584C20.1827 16.9421 21.0729 14.7893 21.0729 12.5016C21.0729 10.2136 20.1781 8.0615 18.5614 6.44592ZM3.625 12.5016C3.625 7.60472 7.59778 3.63477 12.5 3.63477C17.4022 3.63477 21.375 7.60472 21.375 12.5016C21.375 17.3985 17.4022 21.3685 12.5 21.3685C7.59778 21.3685 3.625 17.3985 3.625 12.5016Z" fill="white" stroke="white"/>
<path d="M7.82983 12.502H17.2179" stroke="white" stroke-miterlimit="10" stroke-linejoin="round"/>
</svg>
