<svg width="20" height="20" viewBox="0 0 20 20" fill="none" xmlns="http://www.w3.org/2000/svg">
<path d="M11.5799 15.8474C8.31947 15.8474 5.05906 15.8474 1.80212 15.8474L9.40627 8.40991C10.5347 9.51755 11.6632 10.6252 12.7917 11.7363" stroke="black" stroke-miterlimit="10" stroke-linejoin="round"/>
<path d="M9.38551 8.77446C9.38551 8.42724 9.38551 8.08002 9.38551 7.73279C10.514 7.52793 11.3057 6.52446 11.2432 5.44113C11.1737 4.23627 10.0695 3.25363 8.85773 3.39252C7.79523 3.51404 6.948 4.46196 6.948 5.60432" stroke="black" stroke-miterlimit="10"/>
<path d="M12.7987 14.5486H16.7258" stroke="black" stroke-miterlimit="10"/>
<path d="M14.7639 12.5835V16.5106" stroke="black" stroke-miterlimit="10"/>
<path d="M14.7639 17.9861C16.6624 17.9861 18.2014 16.4471 18.2014 14.5486C18.2014 12.6501 16.6624 11.1111 14.7639 11.1111C12.8654 11.1111 11.3264 12.6501 11.3264 14.5486C11.3264 16.4471 12.8654 17.9861 14.7639 17.9861Z" stroke="black" stroke-miterlimit="10"/>
</svg>
