<svg width="20" height="21" viewBox="0 0 20 21" fill="none" xmlns="http://www.w3.org/2000/svg">
<path d="M2.5 16.802H17.5" stroke="#B3A25D" stroke-miterlimit="10" stroke-linejoin="round"/>
<path d="M15 11.802H5V16.4895H15V11.802Z" stroke="#B3A25D" stroke-miterlimit="10"/>
<path d="M15 9.302H5V11.802H15V9.302Z" stroke="#B3A25D" stroke-miterlimit="10"/>
<path d="M7.53809 9.302V5.8645" stroke="#B3A25D" stroke-miterlimit="10"/>
<path d="M10.0381 9.302V5.8645" stroke="#B3A25D" stroke-miterlimit="10"/>
<path d="M12.5381 9.302V5.8645" stroke="#B3A25D" stroke-miterlimit="10"/>
<path d="M7.66309 4.61451C7.66309 4.68355 7.60712 4.73951 7.53809 4.73951C7.46905 4.73951 7.41309 4.68355 7.41309 4.61451C7.41309 4.54547 7.46905 4.4895 7.53809 4.4895C7.60712 4.4895 7.66309 4.54547 7.66309 4.61451Z" fill="#B3A25D" stroke="#B3A25D"/>
<path d="M10.1631 4.61451C10.1631 4.68355 10.1071 4.73951 10.0381 4.73951C9.96905 4.73951 9.91309 4.68355 9.91309 4.61451C9.91309 4.54547 9.96905 4.4895 10.0381 4.4895C10.1071 4.4895 10.1631 4.54547 10.1631 4.61451Z" fill="#B3A25D" stroke="#B3A25D"/>
<path d="M12.6631 4.61451C12.6631 4.68355 12.6071 4.73951 12.5381 4.73951C12.4691 4.73951 12.4131 4.68355 12.4131 4.61451C12.4131 4.54547 12.4691 4.4895 12.5381 4.4895C12.6071 4.4895 12.6631 4.54547 12.6631 4.61451Z" fill="#B3A25D" stroke="#B3A25D"/>
</svg>
