<svg width="20" height="20" viewBox="0 0 20 20" fill="none" xmlns="http://www.w3.org/2000/svg">
<path d="M10 15.9375C7.41406 15.9375 5.3125 13.8359 5.3125 11.25C5.3125 8.66406 7.41406 6.5625 10 6.5625C12.5859 6.5625 14.6875 8.66406 14.6875 11.25C14.6875 13.8359 12.5859 15.9375 10 15.9375ZM10 7.8125C8.10547 7.8125 6.5625 9.35547 6.5625 11.25C6.5625 13.1445 8.10547 14.6875 10 14.6875C11.8945 14.6875 13.4375 13.1445 13.4375 11.25C13.4375 9.35547 11.8945 7.8125 10 7.8125ZM8.75 11.25C8.75 10.5625 9.3125 10 10 10C10.3438 10 10.625 9.71875 10.625 9.375C10.625 9.03125 10.3438 8.75 10 8.75C8.62109 8.75 7.5 9.87109 7.5 11.25C7.5 11.5938 7.78125 11.875 8.125 11.875C8.46875 11.875 8.75 11.5938 8.75 11.25ZM12.668 2.5C12.7969 2.5 12.9141 2.58203 12.9609 2.70312L13.8242 5H18.125C18.4688 5 18.75 5.28125 18.75 5.625V16.875C18.75 17.2188 18.4688 17.5 18.125 17.5H1.875C1.53125 17.5 1.25 17.2188 1.25 16.875V5.625C1.25 5.28125 1.53125 5 1.875 5H6.17969L6.96484 2.90625C7.05469 2.66406 7.28906 2.5 7.55078 2.5H12.668ZM12.668 1.25H7.55078C6.76953 1.25 6.07031 1.73437 5.79688 2.46484L5.3125 3.75H1.875C0.839844 3.75 0 4.58984 0 5.625V16.875C0 17.9102 0.839844 18.75 1.875 18.75H18.125C19.1602 18.75 20 17.9102 20 16.875V5.625C20 4.58984 19.1602 3.75 18.125 3.75H14.6875L14.1289 2.26562C13.9023 1.65234 13.3203 1.25 12.668 1.25Z" fill="#A9AAA1"/>
</svg>
