<svg width="20" height="21" viewBox="0 0 20 21" fill="none" xmlns="http://www.w3.org/2000/svg">
<path d="M14.948 8.7465V16.6493H5.05216V8.7465H14.948ZM15.9897 7.70483H4.0105V17.691H15.9897V7.70483Z" fill="black"/>
<path d="M8.14245 13.198C8.83665 13.198 9.3994 12.6352 9.3994 11.941C9.3994 11.2468 8.83665 10.6841 8.14245 10.6841C7.44825 10.6841 6.8855 11.2468 6.8855 11.941C6.8855 12.6352 7.44825 13.198 8.14245 13.198Z" fill="black"/>
<path d="M8.66673 12.8682C8.31604 12.8682 7.96534 12.8682 7.61117 12.8716C7.65978 13.139 7.70145 13.5175 7.64589 13.9654C7.57645 14.5314 7.38894 14.9689 7.24658 15.2362C7.79867 15.2362 8.35423 15.2397 8.90632 15.2397C8.79173 14.9411 8.65979 14.5175 8.61812 13.9966C8.57993 13.5452 8.61812 13.1564 8.66673 12.8682Z" fill="black"/>
<path d="M12.0314 13.198C12.7256 13.198 13.2883 12.6352 13.2883 11.941C13.2883 11.2468 12.7256 10.6841 12.0314 10.6841C11.3372 10.6841 10.7744 11.2468 10.7744 11.941C10.7744 12.6352 11.3372 13.198 12.0314 13.198Z" fill="black"/>
<path d="M12.5556 12.8682C12.2049 12.8682 11.8542 12.8682 11.5001 12.8716C11.5487 13.139 11.5904 13.5175 11.5348 13.9654C11.4654 14.5314 11.2779 14.9689 11.1355 15.2362C11.6876 15.2362 12.2431 15.2397 12.7952 15.2397C12.6806 14.9411 12.5487 14.5175 12.507 13.9966C12.4688 13.5452 12.507 13.1564 12.5556 12.8682Z" fill="black"/>
<path d="M13.4098 8.184H6.5105V3.98261C6.5105 3.13886 7.19453 2.45483 8.03828 2.45483H11.882C12.7258 2.45483 13.4098 3.13886 13.4098 3.98261V8.184Z" stroke="black" stroke-miterlimit="10" stroke-linejoin="round"/>
</svg>
