<svg width="34" height="39" viewBox="0 0 34 39" fill="none" xmlns="http://www.w3.org/2000/svg">
<g clip-path="url(#clip0_631_13068)">
<path d="M30.3571 2.4375H3.64286C2.67671 2.4375 1.75014 2.82271 1.06697 3.50839C0.3838 4.19407 0 5.12405 0 6.09375L0 32.9062C0 33.8759 0.3838 34.8059 1.06697 35.4916C1.75014 36.1773 2.67671 36.5625 3.64286 36.5625H14.0592V24.9608H9.2779V19.5H14.0592V15.338C14.0592 10.6039 16.8672 7.98891 21.168 7.98891C23.2278 7.98891 25.3816 8.35758 25.3816 8.35758V13.0041H23.0084C20.6702 13.0041 19.9408 14.4605 19.9408 15.9542V19.5H25.1608L24.3259 24.9608H19.9408V36.5625H30.3571C31.3233 36.5625 32.2499 36.1773 32.933 35.4916C33.6162 34.8059 34 33.8759 34 32.9062V6.09375C34 5.12405 33.6162 4.19407 32.933 3.50839C32.2499 2.82271 31.3233 2.4375 30.3571 2.4375Z" fill="black"/>
</g>
<defs>
<clipPath id="clip0_631_13068">
<rect width="34" height="39" fill="white"/>
</clipPath>
</defs>
</svg>
