<svg width="22" height="22" viewBox="0 0 22 22" fill="none" xmlns="http://www.w3.org/2000/svg">
<path d="M16.7847 18.4761C16.6395 18.4761 16.5059 18.4188 16.4027 18.3196C16.1927 18.1097 16.1927 17.7663 16.4027 17.5564C16.5059 17.4533 16.6395 17.3999 16.7847 17.3999C16.9298 17.3999 17.0635 17.4571 17.1666 17.5564C17.3767 17.7663 17.3767 18.1097 17.1666 18.3196C17.0635 18.4226 16.926 18.4761 16.7847 18.4761Z" fill="black"/>
<path d="M16.7826 17.4053C16.924 17.4053 17.0576 17.4587 17.1569 17.5618C17.3632 17.7678 17.3632 18.1037 17.1569 18.3097C17.0576 18.409 16.924 18.4662 16.7826 18.4662C16.6413 18.4662 16.5076 18.4128 16.4083 18.3097C16.2021 18.1037 16.2021 17.7678 16.4083 17.5618C16.5076 17.4626 16.6413 17.4053 16.7826 17.4053ZM16.7826 17.3862C16.6413 17.3862 16.5 17.4397 16.3931 17.5465C16.1792 17.7602 16.1792 18.1075 16.3931 18.3212C16.5 18.428 16.6413 18.4815 16.7826 18.4815C16.924 18.4815 17.0653 18.428 17.1722 18.3212C17.3861 18.1075 17.3861 17.7602 17.1722 17.5465C17.0615 17.4397 16.924 17.3862 16.7826 17.3862Z" fill="black"/>
<path d="M16.0035 15.4284C15.9958 14.9247 16.4198 14.5355 16.8667 14.5736C17.2639 14.6042 17.6 14.9667 17.5962 15.4094C17.5847 15.5277 17.5504 15.6956 17.4434 15.8559C17.3823 15.9513 17.2868 16.0276 17.1035 16.1879C16.9392 16.3291 16.924 16.3291 16.8781 16.3863C16.8056 16.4779 16.7368 16.6229 16.7406 16.8633" stroke="black" stroke-width="1.2" stroke-miterlimit="10" stroke-linejoin="round"/>
<path d="M13.2993 17.6991C9.71285 17.6991 6.12639 17.6991 2.54375 17.6991L10.9083 9.5249C12.1497 10.7422 13.391 11.9596 14.6323 13.1808" stroke="black" stroke-width="1.2" stroke-miterlimit="10" stroke-linejoin="round"/>
<path d="M10.8892 9.92942C10.8892 9.54781 10.8892 9.1662 10.8892 8.78458C12.1305 8.55943 13.0014 7.45657 12.9326 6.26594C12.8562 4.94174 11.6417 3.86178 10.3087 4.01442C9.13992 4.14799 8.20798 5.18979 8.20798 6.4453" stroke="black" stroke-width="1.2" stroke-miterlimit="10"/>
<path d="M16.8017 20.0498C18.89 20.0498 20.583 18.3584 20.583 16.2719C20.583 14.1854 18.89 12.4939 16.8017 12.4939C14.7134 12.4939 13.0205 14.1854 13.0205 16.2719C13.0205 18.3584 14.7134 20.0498 16.8017 20.0498Z" stroke="black" stroke-width="1.2" stroke-miterlimit="10"/>
</svg>
