<svg width="15" height="16" viewBox="0 0 15 16" fill="none" xmlns="http://www.w3.org/2000/svg">
<path d="M10.8351 8.85529C10.8386 8.84483 10.8944 8.73325 10.9397 8.64259C11.2605 7.99054 11.4209 7.66276 11.4453 7.60697C11.4453 7.60697 11.6406 7.1467 11.6406 6.3203C11.6406 3.93524 9.70535 2 7.3203 2C4.93524 2 3 3.93524 3 6.3203C3 7.18506 3.25455 7.99053 3.69041 8.66351C4.90037 11.1078 6.11034 13.5557 7.31681 16C9.34969 11.8819 10.6399 9.2528 10.8351 8.85529Z" fill="#B3A25D"/>
<path d="M7.3233 7.97667C8.33048 7.97667 9.14696 7.16019 9.14696 6.15301C9.14696 5.14583 8.33048 4.32935 7.3233 4.32935C6.31611 4.32935 5.49963 5.14583 5.49963 6.15301C5.49963 7.16019 6.31611 7.97667 7.3233 7.97667Z" stroke="#B6B7AD" stroke-width="0.8" stroke-miterlimit="10"/>
<circle cx="7.37504" cy="6.37492" r="2.04167" fill="white"/>
</svg>
