<svg width="33" height="37" viewBox="0 0 33 37" fill="none" xmlns="http://www.w3.org/2000/svg">
<g clip-path="url(#clip0_2203_7231)">
<path d="M17.3285 9.11135C12.8804 9.11135 9.29257 12.632 9.29257 16.9969C9.29257 21.3617 12.8804 24.8824 17.3285 24.8824C21.7766 24.8824 25.3645 21.3617 25.3645 16.9969C25.3645 12.632 21.7766 9.11135 17.3285 9.11135ZM17.3285 22.1235C14.454 22.1235 12.1041 19.8244 12.1041 16.9969C12.1041 14.1693 14.447 11.8703 17.3285 11.8703C20.21 11.8703 22.5529 14.1693 22.5529 16.9969C22.5529 19.8244 20.203 22.1235 17.3285 22.1235ZM27.5675 8.7888C27.5675 9.81137 26.7283 10.6281 25.6932 10.6281C24.6511 10.6281 23.8188 9.80451 23.8188 8.7888C23.8188 7.77308 24.6581 6.94953 25.6932 6.94953C26.7283 6.94953 27.5675 7.77308 27.5675 8.7888ZM32.8899 10.6555C32.771 8.19172 32.1975 6.00931 30.3581 4.21122C28.5257 2.41313 26.3017 1.85037 23.7909 1.72684C21.2031 1.58271 13.4469 1.58271 10.8592 1.72684C8.35539 1.84351 6.13134 2.40627 4.29196 4.20436C2.45257 6.00244 1.88607 8.18486 1.76018 10.6487C1.61331 13.1879 1.61331 20.7989 1.76018 23.3382C1.87907 25.802 2.45257 27.9844 4.29196 29.7825C6.13134 31.5806 8.3484 32.1434 10.8592 32.2669C13.4469 32.411 21.2031 32.411 23.7909 32.2669C26.3017 32.1502 28.5257 31.5875 30.3581 29.7825C32.1905 27.9844 32.764 25.802 32.8899 23.3382C33.0367 20.7989 33.0367 13.1948 32.8899 10.6555ZM29.5468 26.0628C29.0013 27.4079 27.9452 28.4442 26.5674 28.9864C24.5042 29.7894 19.6085 29.6041 17.3285 29.6041C15.0485 29.6041 10.1458 29.7825 8.08963 28.9864C6.71883 28.4511 5.66275 27.4148 5.11024 26.0628C4.29196 24.0382 4.48079 19.2342 4.48079 16.9969C4.48079 14.7596 4.29895 9.94863 5.11024 7.93093C5.65576 6.58579 6.71183 5.54949 8.08963 5.00732C10.1528 4.20436 15.0485 4.38965 17.3285 4.38965C19.6085 4.38965 24.5112 4.21122 26.5674 5.00732C27.9382 5.54263 28.9943 6.57893 29.5468 7.93093C30.3651 9.9555 30.1763 14.7596 30.1763 16.9969C30.1763 19.2342 30.3651 24.0451 29.5468 26.0628Z" fill="#B3A25D"/>
</g>
<defs>
<clipPath id="clip0_2203_7231">
<rect width="33" height="37" fill="white"/>
</clipPath>
</defs>
</svg>
