<svg width="19" height="20" viewBox="0 0 19 20" fill="none" xmlns="http://www.w3.org/2000/svg">
<path d="M7.40108 3.11768L9.59202 10.591V14.8792C9.49772 15.2104 9.31099 15.5079 9.05368 15.7368C8.73009 16.0281 8.37945 16.1462 8.15151 16.2207C7.00294 16.5958 5.69768 16.3563 5.26457 16.2646C5.36749 14.1315 5.47062 11.9984 5.57398 9.86531C5.16143 8.01084 4.749 6.15636 4.33667 4.30188L7.40108 3.11768Z" stroke="#B3A25D" stroke-miterlimit="10"/>
<path d="M4.24137 4.1687L1.24524 16.2647L3.11093 16.243L5.31078 8.90618" stroke="#B3A25D" stroke-miterlimit="10"/>
<path d="M11.8134 3.11768C11.0831 5.60879 10.3529 8.0999 9.6228 10.591V14.8792C9.7168 15.2105 9.90345 15.508 10.1608 15.7368C10.4844 16.0281 10.835 16.1462 11.063 16.2207C12.2116 16.5958 13.5168 16.3563 13.9499 16.2646C13.847 14.1315 13.744 11.9984 13.6408 9.86531C14.0532 8.01084 14.4652 6.15636 14.8768 4.30188L11.8134 3.11768Z" stroke="#B3A25D" stroke-miterlimit="10"/>
<path d="M14.9731 4.1687L17.9692 16.2647L16.1035 16.243L13.9027 8.90618" stroke="#B3A25D" stroke-miterlimit="10"/>
<path d="M7.7207 2.96037L11.5039 2.9541" stroke="#B3A25D" stroke-miterlimit="10"/>
</svg>
