<svg width="30" height="30" viewBox="0 0 30 30" fill="none" xmlns="http://www.w3.org/2000/svg">
<path d="M16.0697 7H5.0102C3.35776 7 2.00987 8.34789 2.00987 10.0003V16.4296C1.99859 16.5988 1.99295 16.8075 2.01551 17.0387C2.04371 18.7701 2.07191 20.5015 2.09447 22.2385L6.65136 19.2889C7.36196 19.2889 8.06693 19.2889 8.77753 19.2833C9.9506 19.2833 11.3774 19.2889 12.8494 19.2889C13.9266 19.2889 15.0263 19.2889 16.0697 19.2833C16.4419 19.2833 17.395 19.1931 18.1902 18.4035C18.7598 17.8339 19.07 17.0838 19.07 16.283V10.0003C19.07 8.34789 17.7221 7 16.0697 7ZM17.7842 16.283C17.7842 16.7398 17.6037 17.1684 17.2822 17.4955C16.8141 17.9636 16.2389 17.9975 16.0697 17.9975C13.6108 18.0031 10.8191 18.0031 8.78317 17.9975C7.88646 17.9975 6.98974 17.9975 6.08739 17.9975C5.16811 18.6347 4.25448 19.2664 3.3352 19.9037C3.32392 18.9844 3.31264 18.0651 3.30137 17.1459H3.29573C3.29573 16.909 3.29573 16.6721 3.29009 16.4352V16.283V10.0003C3.29009 9.05286 4.05709 8.28586 5.00456 8.28586H16.0641C17.0115 8.28586 17.7785 9.05286 17.7785 10.0003V16.283H17.7842Z" fill="black"/>
<path d="M20.8073 13.5417H24.9976C25.9451 13.5417 26.7121 14.3087 26.7121 15.2562V21.5388V21.6911C26.7121 21.928 26.7064 22.1648 26.7064 22.4017H26.7008C26.6895 23.321 26.6782 24.2403 26.6669 25.1595C25.7477 24.5222 24.834 23.8906 23.9148 23.2533C23.018 23.2533 22.1213 23.2533 21.219 23.2533C19.183 23.2533 16.3914 23.2589 13.9325 23.2533C13.7633 23.2533 13.188 23.2138 12.7199 22.7514C12.3928 22.4243 12.218 21.9957 12.218 21.5388V20.7775V20.9185L10.9321 20.9241V20.7493V21.5388C10.9321 22.3397 11.2423 23.0898 11.8119 23.6594C12.6015 24.4489 13.5546 24.5392 13.9325 24.5392C14.9758 24.5448 16.0756 24.5448 17.1527 24.5448C18.6247 24.5448 20.0516 24.5448 21.2246 24.5392C21.9352 24.5392 22.6402 24.5392 23.3508 24.5448L27.9077 27.4944C27.9359 25.763 27.9641 24.0316 27.9866 22.2946C28.0036 22.0577 28.0036 21.8547 27.9923 21.6855V15.2562C27.9923 13.6038 26.6444 12.2559 24.9919 12.2559H20.796" fill="black"/>
</svg>
