<svg width="27" height="27" viewBox="0 0 27 27" fill="none" xmlns="http://www.w3.org/2000/svg">
<path d="M12.6561 16.2447C15.2191 16.2447 17.2968 14.1688 17.2968 11.6081C17.2968 9.04737 15.2191 6.9715 12.6561 6.9715C10.0932 6.9715 8.0155 9.04737 8.0155 11.6081C8.0155 14.1688 10.0932 16.2447 12.6561 16.2447Z" stroke="black" stroke-miterlimit="10"/>
<path d="M22.7248 18.296L16.3967 24.6186" stroke="black" stroke-miterlimit="10"/>
<path d="M19.4061 25.9394C21.9691 25.9394 24.0468 23.8635 24.0468 21.3028C24.0468 18.742 21.9691 16.6662 19.4061 16.6662C16.8432 16.6662 14.7655 18.742 14.7655 21.3028C14.7655 23.8635 16.8432 25.9394 19.4061 25.9394Z" stroke="black" stroke-miterlimit="10"/>
<path d="M19.4061 16.6662C14.9248 16.6662 10.4436 16.6662 5.9623 16.6662C5.82637 16.6709 4.84668 16.713 4.22793 17.5092C3.82949 18.0197 3.79668 18.5676 3.79199 18.7737C3.79199 20.8813 3.79199 22.9888 3.79199 25.0964C8.12793 25.0964 12.4639 25.0964 16.7998 25.0964" stroke="black" stroke-miterlimit="10"/>
</svg>
