<svg width="21" height="22" viewBox="0 0 21 22" fill="none" xmlns="http://www.w3.org/2000/svg">
<path d="M7.186 16.027C6.59173 16.027 5.99745 16.0051 5.40318 16.0197C4.84901 16.0307 4.50266 16.0525 4.38964 15.8593C4.26568 15.6478 4.50995 15.3416 4.69953 14.9734C4.91828 14.5468 5.03495 13.9853 5.0787 12.8478C5.12974 11.528 5.17349 10.2411 5.14797 9.78533V9.75617V7.68168C5.14797 6.20876 6.34745 5.00928 7.82038 5.00928H11.9803C13.4532 5.00928 14.6527 6.20876 14.6527 7.68168V9.97492C14.6527 10.0916 14.6527 10.2447 14.6527 10.4197C14.6527 11.0359 14.6563 11.9619 14.6819 12.8187C14.7511 13.8249 15.0209 14.4921 15.2652 14.9223C15.3964 15.1557 15.586 15.4327 15.4839 15.6624C15.3454 15.9796 14.7475 16.0015 14.4522 16.0088C12.9537 16.0489 12.2063 15.9978 9.93132 16.0124C9.05632 16.0197 8.16673 16.027 7.186 16.027ZM5.85891 14.926C7.38652 14.9369 8.6735 14.926 9.92403 14.9187C11.1746 14.9114 12.4688 14.9005 14.0001 14.9114C13.7886 14.2077 13.6027 13.2744 13.5917 12.8515C13.5626 11.9765 13.5626 11.0395 13.5626 10.4161C13.5626 10.2411 13.5626 10.0916 13.5626 9.97127V7.67804C13.5626 6.80668 12.8553 6.09938 11.9839 6.09938H7.81673C6.94537 6.09938 6.23808 6.80668 6.23808 7.67804V9.73429C6.2636 10.2192 6.22714 11.3458 6.16881 12.8843C6.15058 13.3728 6.03391 14.2624 5.85891 14.926Z" fill="black"/>
<path d="M8.27991 16.3987C8.27991 17.0622 8.81949 17.6018 9.48303 17.6018H10.3143C10.9778 17.6018 11.5174 17.0622 11.5174 16.3987V15.6841C11.5174 15.5638 11.419 15.4653 11.2987 15.4653H8.49866C8.37834 15.4653 8.27991 15.5638 8.27991 15.6841V16.3987V16.3987Z" stroke="black" stroke-miterlimit="10"/>
<path d="M9.71625 5.45405C10.4418 5.50144 11.0397 4.89988 10.9959 4.17436C10.9595 3.57645 10.4709 3.08791 9.87302 3.05145C9.14749 3.00405 8.54957 3.60562 8.59332 4.33113C8.63343 4.93269 9.11833 5.41759 9.71625 5.45405Z" stroke="black" stroke-miterlimit="10"/>
</svg>
