<svg width="25" height="26" viewBox="0 0 25 26" fill="none" xmlns="http://www.w3.org/2000/svg">
<path d="M5.5587 5.33251L4.49864 4.83775L4.87361 5.94586L5.5507 7.94673L5.55071 7.94676L7.07849 12.4606L7.07874 12.4614L7.16718 12.7214L7.07895 12.9807L7.07874 12.9813L5.48607 17.6421L5.48593 17.6426L4.88697 19.4004L4.50788 20.5129L5.57231 20.0144L20.2989 13.1177L21.2674 12.6642L20.2983 12.2119L5.5587 5.33251ZM6.79273 12.8826L6.84742 12.7221L6.7932 12.5615C6.18704 10.7654 5.57925 8.97002 4.97175 7.17556C4.64307 6.20471 4.31448 5.23411 3.98629 4.26377C9.98536 7.06439 15.9842 9.86498 21.9797 12.6656C15.9857 15.4733 9.98827 18.281 3.99066 21.0887C4.39405 19.9063 4.79794 18.7244 5.20188 17.5423C5.73247 15.9896 6.26314 14.4367 6.79273 12.8826Z" fill="#A9AAA1" stroke="#A9AAA1"/>
<path d="M6.32382 12.7214C11.0026 12.704 15.6815 12.6823 20.3559 12.6649L6.32382 12.7214Z" fill="#A9AAA1"/>
<path d="M6.32382 12.7214C11.0026 12.704 15.6815 12.6823 20.3559 12.6649" stroke="#A9AAA1" stroke-miterlimit="10"/>
</svg>
