<svg width="32" height="37" viewBox="0 0 32 37" fill="none" xmlns="http://www.w3.org/2000/svg">
<path d="M27.1429 1.61874H3.25714C1.45893 1.61874 0 3.09477 0 4.91406V29.0797C0 30.899 1.45893 32.375 3.25714 32.375H27.1429C28.9411 32.375 30.4 30.899 30.4 29.0797V4.91406C30.4 3.09477 28.9411 1.61874 27.1429 1.61874ZM23.8246 12.5207C23.8382 12.713 23.8382 12.9121 23.8382 13.1043C23.8382 19.0564 19.3596 25.9148 11.1761 25.9148C8.65178 25.9148 6.31071 25.1734 4.34286 23.8964C4.7025 23.9376 5.04857 23.9514 5.415 23.9514C7.49821 23.9514 9.41179 23.2374 10.9386 22.0291C8.98429 21.9879 7.34214 20.6904 6.77893 18.9054C7.46429 19.0084 8.08179 19.0084 8.7875 18.823C6.75179 18.4042 5.225 16.5918 5.225 14.4018V14.3469C5.81536 14.6833 6.5075 14.8892 7.23357 14.9167C6.62315 14.5059 6.12274 13.9486 5.777 13.2946C5.43126 12.6405 5.25094 11.91 5.25214 11.1683C5.25214 10.3307 5.46929 9.56182 5.85607 8.89589C8.04786 11.6283 11.3389 13.4132 15.0304 13.6054C14.3993 10.5504 16.6589 8.07206 19.3732 8.07206C20.6557 8.07206 21.8093 8.61442 22.6236 9.49317C23.6279 9.30094 24.5914 8.92335 25.4464 8.40846C25.1139 9.45198 24.415 10.3307 23.4921 10.8868C24.3879 10.7907 25.2564 10.5367 26.0571 10.1866C25.4532 11.0859 24.6932 11.8823 23.8246 12.5207Z" fill="#B6B7AD"/>
</svg>
