<svg width="33" height="39" viewBox="0 0 33 39" fill="none" xmlns="http://www.w3.org/2000/svg">
<path d="M29.4643 2.4375H3.53571C1.58371 2.4375 0 4.0752 0 6.09375V32.9062C0 34.9248 1.58371 36.5625 3.53571 36.5625H29.4643C31.4163 36.5625 33 34.9248 33 32.9062V6.09375C33 4.0752 31.4163 2.4375 29.4643 2.4375ZM12.0804 27.1172C8.00692 27.1172 4.71429 23.7123 4.71429 19.5C4.71429 15.2877 8.00692 11.8828 12.0804 11.8828C14.0692 11.8828 15.7266 12.6293 17.0156 13.8785L15.0194 15.8666C14.4743 15.3258 13.5241 14.6936 12.0877 14.6936C9.57589 14.6936 7.52812 16.8416 7.52812 19.5076C7.52812 22.166 9.57589 24.3217 12.0877 24.3217C15.0047 24.3217 16.0949 22.1508 16.2717 21.0387H12.0804V18.4184H19.0339C19.1076 18.7992 19.1518 19.1877 19.1518 19.6828C19.1518 24.0322 16.3306 27.1172 12.0804 27.1172ZM28.2857 20.8863H26.1496V23.0953H23.9987V20.8863H21.8625V18.6621H23.9987V16.4531H26.1496V18.6621H28.2857V20.8863Z" fill="black"/>
</svg>
