<svg width="33" height="37" viewBox="0 0 33 37" fill="none" xmlns="http://www.w3.org/2000/svg">
<g clip-path="url(#clip0_2203_7225)">
<path d="M27.9911 1.61877H3.35893C2.46809 1.61877 1.61373 1.96596 0.983807 2.58395C0.353886 3.20194 0 4.04012 0 4.91409L0 29.0797C0 29.9537 0.353886 30.7919 0.983807 31.4098C1.61373 32.0278 2.46809 32.375 3.35893 32.375H12.9634V21.9186H8.55477V16.9969H12.9634V13.2457C12.9634 8.97899 15.5525 6.62216 19.5182 6.62216C21.4174 6.62216 23.4033 6.95443 23.4033 6.95443V11.1422H21.2151C19.0591 11.1422 18.3866 12.4549 18.3866 13.8011V16.9969H23.1997L22.4299 21.9186H18.3866V32.375H27.9911C28.8819 32.375 29.7363 32.0278 30.3662 31.4098C30.9961 30.7919 31.35 29.9537 31.35 29.0797V4.91409C31.35 4.04012 30.9961 3.20194 30.3662 2.58395C29.7363 1.96596 28.8819 1.61877 27.9911 1.61877Z" fill="#B3A25D"/>
</g>
<defs>
<clipPath id="clip0_2203_7225">
<rect width="33" height="37" fill="white"/>
</clipPath>
</defs>
</svg>
