<svg width="20" height="21" viewBox="0 0 20 21" fill="none" xmlns="http://www.w3.org/2000/svg">
<path d="M9.94092 14.5936C9.95481 12.6804 9.9687 10.7706 9.98258 8.85742" stroke="black" stroke-miterlimit="10" stroke-linejoin="round"/>
<path d="M9.96179 3.55192C11.6875 3.55192 13.309 4.22206 14.5278 5.44428C15.7465 6.6665 16.4201 8.28456 16.4201 10.0103C16.4201 11.7359 15.75 13.3575 14.5278 14.5762C13.3055 15.795 11.6875 16.4686 9.96179 16.4686C8.2361 16.4686 6.61457 15.7984 5.39582 14.5762C4.17707 13.354 3.50346 11.7359 3.50346 10.0103C3.50346 8.28456 4.1736 6.66303 5.39582 5.44428C6.61804 4.22553 8.2361 3.55192 9.96179 3.55192ZM9.96179 2.51025C5.81943 2.51025 2.46179 5.86789 2.46179 10.0103C2.46179 14.1526 5.81943 17.5103 9.96179 17.5103C14.1042 17.5103 17.4618 14.1526 17.4618 10.0103C17.4618 5.86789 14.1042 2.51025 9.96179 2.51025Z" fill="black"/>
<path d="M9.98975 5.6665C9.6078 5.6665 9.30225 5.97553 9.30225 6.354C9.30225 6.73246 9.61127 7.04149 9.98975 7.04149C10.3682 7.04149 10.6772 6.73246 10.6772 6.354C10.6772 5.97553 10.3717 5.6665 9.98975 5.6665Z" fill="black"/>
</svg>
