<svg width="14" height="14" viewBox="0 0 14 14" fill="none" xmlns="http://www.w3.org/2000/svg">
<path d="M3.51945 5.99587V10.843H2.20695V5.99587H3.51945ZM4.24862 5.26733H1.47778V11.5716H4.24619V5.26733H4.24862Z" fill="#A9AAA1"/>
<path d="M8.50694 2.78054C8.51423 2.78054 8.51909 2.78054 8.52395 2.78296C8.58229 2.79268 8.66249 2.88253 8.70624 2.96267C8.80347 3.1448 8.72812 3.42165 8.62117 3.76649C8.4559 4.28617 8.15694 4.76215 7.72916 5.1847C7.49096 5.42026 7.41805 5.77481 7.54201 6.08565C7.66596 6.39649 7.96492 6.60291 8.30034 6.60777C9.17291 6.62234 9.81701 6.62962 10.3323 6.62962C10.6604 6.62962 10.9302 6.6272 11.1587 6.61991C11.166 6.61991 11.1781 6.61991 11.1878 6.61991C11.2146 6.61991 11.2486 6.62234 11.2802 6.63448C11.3531 6.66605 11.4382 6.7729 11.5087 6.9259C11.6083 7.14203 11.6642 7.4043 11.6934 7.54515C11.8344 8.21297 11.8222 9.04593 11.6594 9.71861C11.5014 10.3816 11.2535 10.7021 11.076 10.7896C10.9764 10.7968 10.7503 10.8066 10.5097 10.8163C9.92881 10.8406 9.52291 10.8406 9.16562 10.8406H9.11458H9.06353C8.96631 10.8406 8.86666 10.8406 8.76458 10.8406C7.97465 10.843 6.14687 10.8673 5.77013 10.8745H5.76527C5.75555 10.8745 5.74339 10.8746 5.72881 10.8721V5.81852C6.3559 5.48097 6.91249 5.01956 7.34999 4.47074C7.68541 4.04819 7.9552 3.57707 8.14722 3.06952C8.25173 2.8801 8.40728 2.78054 8.50694 2.78054ZM8.50694 2.052C8.11562 2.052 7.70728 2.32156 7.48367 2.76597C7.48124 2.77082 7.48124 2.77325 7.47881 2.77811C7.35485 3.11566 7.1434 3.5625 6.78124 4.01662C6.18576 4.76215 5.48333 5.14827 5.06284 5.33526C5.02638 5.35226 5.00208 5.38869 5.00208 5.42997V11.4695C5.02152 11.5011 5.05555 11.5448 5.10659 11.5739C5.15277 11.5982 5.19895 11.6055 5.2427 11.6055C5.28159 11.6055 5.31562 11.6007 5.34235 11.5958C5.37638 11.5909 5.41284 11.5885 5.44687 11.5885C5.55381 11.5885 5.66076 11.6055 5.7677 11.6055C5.77499 11.6055 5.77985 11.6055 5.78715 11.6055C6.17603 11.5958 8.00624 11.5739 8.76701 11.5715C8.86909 11.5715 8.96874 11.5715 9.06353 11.5715C9.09756 11.5715 9.13402 11.5715 9.16805 11.5715C9.57638 11.5715 9.9677 11.5715 10.5413 11.5472C10.9837 11.5302 11.2049 11.5205 11.2705 11.4987C12.3618 11.1393 12.7337 8.93665 12.408 7.39701C12.3253 7.00603 12.1455 6.20708 11.5621 5.96423C11.4115 5.90109 11.2753 5.89381 11.1903 5.89381C11.1708 5.89381 11.1538 5.89381 11.1392 5.89381C10.9132 5.89866 10.6434 5.90352 10.3323 5.90352C9.78541 5.90352 9.10972 5.89623 8.31249 5.88166C8.22013 5.87923 8.17638 5.76995 8.24201 5.70439C8.63333 5.31583 9.07569 4.75001 9.31631 3.98747C9.44756 3.57221 9.59583 3.07924 9.35034 2.62026C9.30173 2.53283 9.07812 2.14428 8.65277 2.069C8.60416 2.05443 8.55555 2.052 8.50694 2.052Z" fill="#A9AAA1"/>
</svg>
