<svg width="24" height="24" viewBox="0 0 24 24" fill="none" xmlns="http://www.w3.org/2000/svg">
<path d="M12 12.4059C14.2782 12.4059 16.125 10.5607 16.125 8.28451C16.125 6.00831 14.2782 4.16309 12 4.16309C9.72183 4.16309 7.875 6.00831 7.875 8.28451C7.875 10.5607 9.72183 12.4059 12 12.4059Z" stroke="black" stroke-miterlimit="10"/>
<path d="M15.6417 16.9019H20.3584" stroke="black" stroke-miterlimit="10"/>
<path d="M18 14.5457V19.254" stroke="black" stroke-miterlimit="10"/>
<path d="M18 21.0234C20.2782 21.0234 22.125 19.1781 22.125 16.9019C22.125 14.6257 20.2782 12.7805 18 12.7805C15.7218 12.7805 13.875 14.6257 13.875 16.9019C13.875 19.1781 15.7218 21.0234 18 21.0234Z" stroke="black" stroke-miterlimit="10"/>
<path d="M18 12.7805C14.0167 12.7805 10.0333 12.7805 6.04999 12.7805C5.92915 12.7847 5.05832 12.8221 4.50832 13.5299C4.15415 13.9836 4.12499 14.4707 4.12082 14.6539C4.12082 16.5273 4.12082 18.4006 4.12082 20.274C7.97499 20.274 11.8292 20.274 15.6833 20.274" stroke="black" stroke-miterlimit="10"/>
</svg>
