<svg width="30" height="30" viewBox="0 0 30 30" fill="none" xmlns="http://www.w3.org/2000/svg">
<path d="M14.9449 17.1441C17.4723 17.1441 19.5212 15.0971 19.5212 12.5721C19.5212 10.047 17.4723 8 14.9449 8C12.4175 8 10.3687 10.047 10.3687 12.5721C10.3687 15.0971 12.4175 17.1441 14.9449 17.1441Z" stroke="#A9AAA1" stroke-width="1.5" stroke-miterlimit="10"/>
<path d="M8.35146 17.1441H21.5394C22.1626 17.1441 22.7602 17.3914 23.2009 17.8317C23.6415 18.2719 23.889 18.869 23.889 19.4916V25.4569H6V19.4916C6 19.1831 6.06084 18.8777 6.17903 18.5928C6.29723 18.3079 6.47046 18.049 6.68884 17.831C6.90722 17.613 7.16645 17.4401 7.45174 17.3223C7.73702 17.2044 8.04275 17.1439 8.35146 17.1441V17.1441Z" stroke="#A9AAA1" stroke-width="1.5" stroke-miterlimit="10"/>
</svg>
