<svg width="20" height="21" viewBox="0 0 20 21" fill="none" xmlns="http://www.w3.org/2000/svg">
<path d="M9.375 9.81932C11.2735 9.81932 12.8125 8.2803 12.8125 6.38183C12.8125 4.48335 11.2735 2.94434 9.375 2.94434C7.47652 2.94434 5.9375 4.48335 5.9375 6.38183C5.9375 8.2803 7.47652 9.81932 9.375 9.81932Z" stroke="black" stroke-miterlimit="10"/>
<path d="M16.8333 11.3401L12.1458 16.0276" stroke="black" stroke-miterlimit="10"/>
<path d="M14.375 17.0068C16.2735 17.0068 17.8125 15.4678 17.8125 13.5693C17.8125 11.6709 16.2735 10.1318 14.375 10.1318C12.4765 10.1318 10.9375 11.6709 10.9375 13.5693C10.9375 15.4678 12.4765 17.0068 14.375 17.0068Z" stroke="black" stroke-miterlimit="10"/>
<path d="M14.3751 10.1318C11.0556 10.1318 7.73616 10.1318 4.41672 10.1318C4.31603 10.1353 3.59033 10.1666 3.132 10.7568C2.83686 11.1353 2.81255 11.5416 2.80908 11.6943C2.80908 13.2568 2.80908 14.8193 2.80908 16.3818C6.02089 16.3818 9.23269 16.3818 12.4445 16.3818" stroke="black" stroke-miterlimit="10"/>
</svg>
