<svg width="14" height="20" viewBox="0 0 14 20" fill="none" xmlns="http://www.w3.org/2000/svg">
<path d="M3.55118 16.7852C2.80547 16.7852 2.05977 16.7577 1.31407 16.776C0.618693 16.7897 0.184082 16.8172 0.0422612 16.5747C-0.113284 16.3094 0.193231 15.9251 0.431123 15.463C0.705615 14.9278 0.852011 14.2233 0.906909 12.7959C0.970957 11.1398 1.02585 9.52488 0.993831 8.95302V8.91642V6.31333C0.993831 4.46509 2.49896 2.95996 4.3472 2.95996H9.56711C11.4154 2.95996 12.9205 4.46509 12.9205 6.31333V9.19091C12.9205 9.33731 12.9205 9.52945 12.9205 9.74905C12.9205 10.5222 12.9251 11.6842 12.9571 12.7593C13.044 14.022 13.3825 14.8592 13.6891 15.399C13.8538 15.6918 14.0916 16.0395 13.9635 16.3277C13.7897 16.7257 13.0394 16.7532 12.6689 16.7623C10.7886 16.8126 9.85075 16.7486 6.99604 16.7669C5.89808 16.776 4.78181 16.7852 3.55118 16.7852ZM1.88593 15.4036C3.80279 15.4173 5.41772 15.4036 6.98689 15.3944C8.55607 15.3853 10.1801 15.3715 12.1016 15.3853C11.8362 14.5023 11.6029 13.3312 11.5892 12.8005C11.5526 11.7025 11.5526 10.5268 11.5526 9.74447C11.5526 9.52488 11.5526 9.33731 11.5526 9.18634V6.30876C11.5526 5.21537 10.6651 4.32784 9.57169 4.32784H4.34262C3.24923 4.32784 2.36171 5.21537 2.36171 6.30876V8.88897C2.39374 9.49743 2.34799 10.9111 2.27479 12.8416C2.25192 13.4547 2.10552 14.5709 1.88593 15.4036Z" fill="black"/>
<path d="M4.92365 17.2517C4.92365 18.0844 5.60072 18.7614 6.43335 18.7614H7.47641C8.30904 18.7614 8.98612 18.0844 8.98612 17.2517V16.3551C8.98612 16.2041 8.8626 16.0806 8.71163 16.0806H5.19814C5.04717 16.0806 4.92365 16.2041 4.92365 16.3551V17.2517V17.2517Z" stroke="black" stroke-miterlimit="10"/>
<path d="M6.72613 3.51812C7.63652 3.57759 8.3868 2.82274 8.3319 1.91235C8.28615 1.16207 7.67312 0.549039 6.92285 0.50329C6.01245 0.443817 5.26217 1.19867 5.31707 2.10907C5.3674 2.86392 5.97585 3.47237 6.72613 3.51812Z" stroke="black" stroke-miterlimit="10"/>
</svg>
