<svg width="26" height="26" viewBox="0 0 26 26" fill="none" xmlns="http://www.w3.org/2000/svg">
<path d="M11.7326 11.1033C14.0622 11.1033 15.9508 9.21643 15.9508 6.88884C15.9508 4.56124 14.0622 2.67435 11.7326 2.67435C9.40299 2.67435 7.51447 4.56124 7.51447 6.88884C7.51447 9.21643 9.40299 11.1033 11.7326 11.1033Z" stroke="black" stroke-width="1.1" stroke-miterlimit="10"/>
<path d="M13.5092 19.8386C10.0196 19.8216 6.53008 19.8046 3.04053 19.7875V13.3977C3.04479 12.84 3.23226 12.2951 3.56886 11.8609C4.27188 10.9542 5.32429 10.8562 5.63106 10.8477H5.6481C9.41887 10.8222 13.1854 10.7924 16.9561 10.7668C16.6579 11.184 16.3596 11.6012 16.0614 12.0227C15.6609 12.0184 15.0431 12.0142 14.2889 12.0142C12.9084 12.0142 12.4184 12.0354 11.8091 12.0354C10.0537 12.0397 7.34388 11.8992 5.66089 12.1291C5.44785 12.1589 4.90247 12.2313 4.57866 12.6485C4.3571 12.9337 4.31875 13.2445 4.31875 13.4105V18.5147C7.79126 18.5019 11.2638 18.4934 14.7363 18.4806C14.3272 18.9319 13.9182 19.3831 13.5092 19.8386Z" fill="black"/>
<path d="M14.8681 19.8259C14.31 19.8301 13.7518 19.8301 13.1937 19.8344C16.777 16.2797 20.3602 12.7251 23.9478 9.17047L24.8468 10.0815C21.5149 13.3296 18.1915 16.5777 14.8681 19.8259Z" fill="black"/>
<path d="M15.908 16.1436C15.6055 16.4288 15.2987 16.7098 14.9962 16.995C14.9962 15.654 14.9962 14.313 14.9962 12.9678C14.9962 11.7418 15.9932 10.7456 17.2203 10.7456C17.7955 10.7499 18.3665 10.7541 18.9417 10.7584C19.3763 10.7626 19.585 10.7626 19.8662 10.7626C20.4628 10.7669 20.9527 10.7669 21.2766 10.7669C20.9826 11.0564 20.6886 11.3459 20.3946 11.6353C19.8279 11.6524 19.3677 11.6524 19.0482 11.6438C18.7329 11.6396 18.3153 11.6268 17.7103 11.6353C17.4121 11.6396 17.2672 11.6481 17.2161 11.6481C16.4917 11.6481 15.9038 12.2356 15.9038 12.9593V16.1436H15.908Z" fill="black"/>
<path d="M23.9738 19.1833C24.2252 19.4812 24.0122 19.9367 23.6245 19.9325C22.5124 19.9197 21.4515 19.9112 20.3863 19.8984C19.3595 19.8899 18.3326 19.8772 17.2674 19.8686C17.2035 19.8686 17.1481 19.8133 17.1481 19.7494L17.1567 19.1194C17.1567 19.0555 17.212 19.0002 17.276 19.0002C18.3454 19.0087 19.368 18.9789 20.3948 18.9874C21.1021 18.9959 21.8136 19.0002 22.538 19.0087C22.6275 19.0087 22.6871 18.9108 22.6445 18.8342C22.5891 18.732 22.538 18.6256 22.4911 18.5234C22.1758 17.8295 22.0139 17.0888 22.0096 16.314V13.9642C22.0096 13.9301 22.0224 13.9003 22.048 13.879C22.2695 13.6662 22.4868 13.4533 22.7084 13.2447C22.7851 13.1724 22.9087 13.2234 22.9087 13.3299C22.9129 14.326 22.9172 15.3179 22.9214 16.314C22.9257 16.9568 23.062 17.5741 23.322 18.1488C23.4796 18.5192 23.7054 18.8682 23.9738 19.1833Z" fill="black"/>
<path d="M19.2996 21.9886H18.6051C17.7018 21.9886 16.9647 21.2606 16.9647 20.3624V18.9576L20.94 19.0002V20.3624C20.94 21.2606 20.2029 21.9886 19.2996 21.9886ZM18.2472 20.239V20.3667C18.2472 20.5582 18.4091 20.7157 18.6094 20.7157H19.3039C19.5041 20.7157 19.666 20.5582 19.666 20.3667V20.239H18.2472Z" fill="black"/>
<path d="M18.8694 10.9928C19.4224 10.9928 19.8707 10.5449 19.8707 9.99235C19.8707 9.43984 19.4224 8.99194 18.8694 8.99194C18.3164 8.99194 17.8681 9.43984 17.8681 9.99235C17.8681 10.5449 18.3164 10.9928 18.8694 10.9928Z" stroke="black" stroke-width="1.1" stroke-miterlimit="10"/>
</svg>
