<svg width="20" height="21" viewBox="0 0 20 21" fill="none" xmlns="http://www.w3.org/2000/svg">
<path d="M14.8855 8.56242V16.4652H4.98966V8.56242H14.8855ZM15.9272 7.52075H3.948V17.5069H15.9272V7.52075Z" fill="black"/>
<path d="M9.99999 12.9895C10.6942 12.9895 11.2569 12.4267 11.2569 11.7325C11.2569 11.0383 10.6942 10.4756 9.99999 10.4756C9.3058 10.4756 8.74304 11.0383 8.74304 11.7325C8.74304 12.4267 9.3058 12.9895 9.99999 12.9895Z" fill="black"/>
<path d="M10.7362 12.052C10.2918 12.052 9.85082 12.052 9.40638 12.052C9.51749 12.3923 9.62165 12.8888 9.5279 13.486C9.42026 14.177 9.09387 14.7152 8.84387 15.0485C9.61471 15.0589 10.3821 15.0659 11.1529 15.0763C10.9064 14.8055 10.4897 14.2638 10.4099 13.5242C10.3404 12.8645 10.5731 12.3402 10.7362 12.052Z" fill="black"/>
<path d="M6.60427 7.55554C6.5626 5.52777 8.26052 3.90624 10.1633 3.99652C11.9515 4.08332 13.4376 5.65624 13.3925 7.55554" stroke="black" stroke-miterlimit="10" stroke-linejoin="round"/>
</svg>
