<svg width="9" height="14" viewBox="0 0 9 14" fill="none" xmlns="http://www.w3.org/2000/svg">
<path d="M7.48829 6.60445C7.49143 6.59501 7.54176 6.49436 7.58264 6.41259C7.872 5.82443 8.01668 5.52878 8.0387 5.47845C8.0387 5.47845 8.21483 5.06328 8.21483 4.31787C8.21483 2.16653 6.46923 0.42093 4.3179 0.42093C2.16656 0.42093 0.420962 2.16653 0.420962 4.31787C0.420962 5.09788 0.650563 5.82443 1.04372 6.43146C2.13511 8.63626 3.2265 10.8442 4.31475 13.049C6.14842 9.3345 7.31215 6.963 7.48829 6.60445Z" fill="#A9AAA1" stroke="#A9AAA1" stroke-width="0.8" stroke-miterlimit="10"/>
<path d="M4.32064 5.81192C5.22912 5.81192 5.96559 5.07545 5.96559 4.16697C5.96559 3.25848 5.22912 2.52201 4.32064 2.52201C3.41215 2.52201 2.67568 3.25848 2.67568 4.16697C2.67568 5.07545 3.41215 5.81192 4.32064 5.81192Z" stroke="#A9AAA1" stroke-width="0.8" stroke-miterlimit="10"/>
<circle cx="4.36724" cy="4.36721" r="1.8416" fill="white"/>
</svg>
