<svg width="24" height="24" viewBox="0 0 24 24" fill="none" xmlns="http://www.w3.org/2000/svg">
<path d="M9.28125 3.55941C11.0069 3.55941 12.6285 4.22897 13.8472 5.45013C15.066 6.67129 15.7396 8.28794 15.7396 10.0121C15.7396 11.7363 15.0694 13.3565 13.8472 14.5742C12.6285 15.7918 11.0069 16.4649 9.28125 16.4649C7.55555 16.4649 5.93403 15.7953 4.71528 14.5742C3.49653 13.3565 2.82292 11.7363 2.82292 10.0121C2.82292 8.28794 3.49306 6.66782 4.71528 5.45013C5.9375 4.23244 7.55555 3.55941 9.28125 3.55941ZM9.28125 2.51865C5.13889 2.51865 1.78125 5.87337 1.78125 10.0121C1.78125 14.1509 5.13889 17.5056 9.28125 17.5056C13.4236 17.5056 16.7812 14.1509 16.7812 10.0121C16.7812 5.87337 13.4236 2.51865 9.28125 2.51865Z" fill="#B3A25D"/>
<path d="M6.96875 7.51086C7.34028 7.51086 7.64583 7.81268 7.64583 8.18735C7.64583 8.55856 7.34375 8.86385 6.96875 8.86385C6.59375 8.86385 6.29167 8.55856 6.29167 8.18735C6.29167 7.81268 6.59375 7.51086 6.96875 7.51086ZM6.96875 6.47009C6.02083 6.47009 5.25 7.24026 5.25 8.18735C5.25 9.13445 6.02083 9.90461 6.96875 9.90461C7.91667 9.90461 8.6875 9.13445 8.6875 8.18735C8.68403 7.24026 7.91667 6.47009 6.96875 6.47009Z" fill="#B3A25D"/>
<path d="M11.5938 7.51086C11.9653 7.51086 12.2708 7.81268 12.2708 8.18735C12.2708 8.55856 11.9688 8.86385 11.5938 8.86385C11.2188 8.86385 10.9167 8.56203 10.9167 8.18735C10.9167 7.81268 11.2222 7.51086 11.5938 7.51086ZM11.5938 6.47009C10.6458 6.47009 9.875 7.24026 9.875 8.18735C9.875 9.13445 10.6458 9.90461 11.5938 9.90461C12.5417 9.90461 13.3125 9.13445 13.3125 8.18735C13.3125 7.24026 12.5451 6.47009 11.5938 6.47009Z" fill="#B3A25D"/>
<path d="M6.96875 11.4484C7.34028 11.4484 7.64583 11.7502 7.64583 12.1249C7.64583 12.4996 7.34375 12.8014 6.96875 12.8014C6.59375 12.8014 6.29167 12.4996 6.29167 12.1249C6.29167 11.7502 6.59375 11.4484 6.96875 11.4484ZM6.96875 10.4076C6.02083 10.4076 5.25 11.1778 5.25 12.1249C5.25 13.072 6.02083 13.8421 6.96875 13.8421C7.91667 13.8421 8.6875 13.072 8.6875 12.1249C8.6875 11.1778 7.91667 10.4076 6.96875 10.4076Z" fill="#B3A25D"/>
<path d="M11.5938 11.4484C11.9653 11.4484 12.2708 11.7502 12.2708 12.1249C12.2708 12.4996 11.9688 12.8014 11.5938 12.8014C11.2188 12.8014 10.9167 12.4996 10.9167 12.1249C10.9167 11.7502 11.2222 11.4484 11.5938 11.4484ZM11.5938 10.4076C10.6458 10.4076 9.875 11.1778 9.875 12.1249C9.875 13.072 10.6458 13.8421 11.5938 13.8421C12.5417 13.8421 13.3125 13.072 13.3125 12.1249C13.3125 11.1778 12.5451 10.4076 11.5938 10.4076Z" fill="#B3A25D"/>
</svg>
