<svg width="9" height="14" viewBox="0 0 9 14" fill="none" xmlns="http://www.w3.org/2000/svg">
<path d="M7.76089 6.61708C7.76415 6.60763 7.81641 6.50679 7.85887 6.42486C8.15936 5.83556 8.3096 5.53934 8.33247 5.48892C8.33247 5.48892 8.51537 5.07295 8.51537 4.3261C8.51537 2.17061 6.70264 0.421645 4.46857 0.421645C2.2345 0.421645 0.421774 2.17061 0.421774 4.3261C0.421774 5.10762 0.660205 5.83556 1.06848 6.44376C2.20184 8.65282 3.33521 10.865 4.46531 13.0741C6.36949 9.35241 7.57798 6.97633 7.76089 6.61708Z" fill="#A9AAA1" stroke="#A9AAA1" stroke-width="0.8" stroke-miterlimit="10"/>
<path d="M4.47143 5.82303C5.41485 5.82303 6.17964 5.08514 6.17964 4.17491C6.17964 3.26467 5.41485 2.52678 4.47143 2.52678C3.52801 2.52678 2.76322 3.26467 2.76322 4.17491C2.76322 5.08514 3.52801 5.82303 4.47143 5.82303Z" stroke="#A9AAA1" stroke-width="0.8" stroke-miterlimit="10"/>
<ellipse cx="4.51977" cy="4.37553" rx="1.91242" ry="1.84515" fill="white"/>
</svg>
