<svg width="23" height="23" viewBox="0 0 23 23" fill="none" xmlns="http://www.w3.org/2000/svg">
<path d="M4.73169 18.3719L18.8791 4.20483" stroke="black" stroke-miterlimit="10" stroke-linejoin="round"/>
<path d="M7.71843 12.7824C7.31912 13.1574 6.91981 13.5284 6.52051 13.9035C6.52051 12.1361 6.52051 10.3727 6.52051 8.60528C6.52051 6.99348 7.83423 5.68091 9.44742 5.68091C10.2021 5.6849 10.9568 5.68889 11.7115 5.69687C12.2825 5.70086 12.558 5.70086 12.9294 5.70485C13.716 5.70884 14.3589 5.70884 14.7861 5.71283C14.3988 6.09583 14.0155 6.47484 13.6282 6.85784C12.8815 6.87778 12.2785 6.87778 11.8592 6.86981C11.444 6.86582 10.8969 6.84986 10.0983 6.86183C9.70697 6.86582 9.51131 6.88177 9.44742 6.88177C8.49308 6.88177 7.71843 7.65575 7.71843 8.60927V12.7824Z" fill="black"/>
<path d="M18.328 16.7799C18.6594 17.1709 18.3799 17.7693 17.8648 17.7654C16.4033 17.7494 15.0018 17.7374 13.6002 17.7215C12.1986 17.7055 10.7971 17.6935 9.3396 17.6776L9.35158 16.4807C10.813 16.4967 12.2146 16.5086 13.6122 16.5246C14.6344 16.5366 15.6566 16.5445 16.7028 16.5565C16.579 16.3491 16.4672 16.1296 16.3674 15.9102C15.9521 15.0006 15.7365 14.0191 15.7325 13.0018V9.84602C16.1278 9.46701 16.5191 9.088 16.9144 8.70898C16.9184 10.1412 16.9264 11.5695 16.9304 13.0018C16.9344 13.8476 17.1141 14.6575 17.4575 15.4155C17.6851 15.9022 17.9766 16.365 18.328 16.7799Z" fill="black"/>
<path d="M9.95459 18.1444C9.95459 18.8705 10.5456 19.4609 11.2723 19.4609H12.1827C12.9095 19.4609 13.5004 18.8705 13.5004 18.1444V17.123H9.95459V18.1444Z" stroke="black" stroke-miterlimit="10"/>
<path d="M11.6117 6.17171C12.3394 6.17171 12.9294 5.58226 12.9294 4.85514C12.9294 4.12802 12.3394 3.53857 11.6117 3.53857C10.8839 3.53857 10.2939 4.12802 10.2939 4.85514C10.2939 5.58226 10.8839 6.17171 11.6117 6.17171Z" stroke="black" stroke-miterlimit="10"/>
</svg>
