<svg width="375" height="279" viewBox="0 0 375 279" fill="none" xmlns="http://www.w3.org/2000/svg">
<mask id="mask0_631_15708" style="mask-type:luminance" maskUnits="userSpaceOnUse" x="0" y="0" width="375" height="279">
<path fill-rule="evenodd" clip-rule="evenodd" d="M0 0V279H375V0H0Z" fill="white"/>
</mask>
<g mask="url(#mask0_631_15708)">
<path d="M374.5 49.4702H0.5V0.5H374.5V49.4702Z" fill="#E4E7E8" stroke="#E2E2E3"/>
<path opacity="0.1" d="M123.437 13.0132V41.1407" stroke="#37474F" stroke-linecap="square"/>
<path opacity="0.1" d="M252.604 13.0132V41.1407" stroke="#37474F" stroke-linecap="square"/>
<path opacity="0.8" d="M33.2627 30.8179C33.2627 30.4761 33.1328 30.2118 32.873 30.0249C32.6178 29.8335 32.1689 29.6694 31.5263 29.5327C30.8883 29.396 30.3802 29.2319 30.0019 29.0405C29.6282 28.8491 29.3502 28.6213 29.1679 28.3569C28.9902 28.0926 28.9013 27.7782 28.9013 27.4136C28.9013 26.8075 29.1565 26.2948 29.667 25.8755C30.1819 25.4562 30.8382 25.2466 31.6357 25.2466C32.4742 25.2466 33.1533 25.4631 33.6728 25.896C34.1969 26.3289 34.4589 26.8826 34.4589 27.5571H33.1875C33.1875 27.2108 33.0393 26.9123 32.7431 26.6616C32.4515 26.411 32.0823 26.2856 31.6357 26.2856C31.1754 26.2856 30.8154 26.3859 30.5556 26.5864C30.2959 26.7869 30.166 27.049 30.166 27.3726C30.166 27.6779 30.2867 27.908 30.5283 28.063C30.7698 28.2179 31.205 28.366 31.8339 28.5073C32.4674 28.6486 32.9801 28.8172 33.372 29.0132C33.764 29.2091 34.0533 29.4461 34.2402 29.7241C34.4316 29.9976 34.5273 30.3325 34.5273 30.729C34.5273 31.3898 34.263 31.9207 33.7343 32.3218C33.2057 32.7183 32.5198 32.9165 31.6767 32.9165C31.0843 32.9165 30.5602 32.8117 30.1045 32.6021C29.6487 32.3924 29.291 32.1007 29.0312 31.7271C28.776 31.3488 28.6484 30.9409 28.6484 30.5034H29.913C29.9358 30.9272 30.1045 31.2645 30.4189 31.5151C30.7379 31.7612 31.1572 31.8843 31.6767 31.8843C32.1552 31.8843 32.538 31.7886 32.8252 31.5972C33.1168 31.4012 33.2627 31.1414 33.2627 30.8179ZM40.7412 32.0483C40.249 32.6271 39.5267 32.9165 38.5742 32.9165C37.7858 32.9165 37.1842 32.6886 36.7695 32.2329C36.3593 31.7726 36.152 31.0936 36.1474 30.1958V25.3833H37.4121V30.1616C37.4121 31.2827 37.8678 31.8433 38.7793 31.8433C39.7454 31.8433 40.388 31.4832 40.707 30.7632V25.3833H41.9716V32.7798H40.7685L40.7412 32.0483ZM43.5986 29.02C43.5986 27.867 43.8652 26.951 44.3984 26.272C44.9316 25.5884 45.638 25.2466 46.5175 25.2466C47.4199 25.2466 48.124 25.5656 48.6298 26.2036L48.6914 25.3833H49.8466V32.6021C49.8466 33.5591 49.5618 34.3133 48.9921 34.8647C48.427 35.4162 47.666 35.6919 46.7089 35.6919C46.1757 35.6919 45.6539 35.578 45.1435 35.3501C44.6331 35.1222 44.2434 34.8101 43.9746 34.4136L44.6308 33.6548C45.1731 34.3247 45.8362 34.6597 46.6201 34.6597C47.2353 34.6597 47.7138 34.4865 48.0556 34.1401C48.402 33.7938 48.5752 33.3062 48.5752 32.6772V32.0415C48.0693 32.6248 47.3789 32.9165 46.5039 32.9165C45.638 32.9165 44.9362 32.5679 44.3984 31.8706C43.8652 31.1733 43.5986 30.2231 43.5986 29.02ZM44.8701 29.1636C44.8701 29.9976 45.041 30.6538 45.3828 31.1323C45.7246 31.6063 46.2031 31.8433 46.8183 31.8433C47.6158 31.8433 48.2015 31.481 48.5752 30.7563V27.3794C48.1878 26.673 47.6067 26.3198 46.832 26.3198C46.2168 26.3198 45.736 26.5591 45.3896 27.0376C45.0433 27.5161 44.8701 28.2248 44.8701 29.1636ZM51.4599 29.02C51.4599 27.867 51.7265 26.951 52.2597 26.272C52.7929 25.5884 53.4993 25.2466 54.3789 25.2466C55.2812 25.2466 55.9853 25.5656 56.4912 26.2036L56.5527 25.3833H57.708V32.6021C57.708 33.5591 57.4231 34.3133 56.8535 34.8647C56.2884 35.4162 55.5273 35.6919 54.5703 35.6919C54.0371 35.6919 53.5153 35.578 53.0048 35.3501C52.4944 35.1222 52.1048 34.8101 51.8359 34.4136L52.4921 33.6548C53.0345 34.3247 53.6975 34.6597 54.4814 34.6597C55.0966 34.6597 55.5752 34.4865 55.917 34.1401C56.2633 33.7938 56.4365 33.3062 56.4365 32.6772V32.0415C55.9306 32.6248 55.2402 32.9165 54.3652 32.9165C53.4993 32.9165 52.7975 32.5679 52.2597 31.8706C51.7265 31.1733 51.4599 30.2231 51.4599 29.02ZM52.7314 29.1636C52.7314 29.9976 52.9023 30.6538 53.2441 31.1323C53.5859 31.6063 54.0644 31.8433 54.6796 31.8433C55.4772 31.8433 56.0628 31.481 56.4365 30.7563V27.3794C56.0491 26.673 55.4681 26.3198 54.6933 26.3198C54.0781 26.3198 53.5973 26.5591 53.2509 27.0376C52.9046 27.5161 52.7314 28.2248 52.7314 29.1636ZM62.6914 32.9165C61.6888 32.9165 60.873 32.5884 60.2441 31.9321C59.6152 31.2713 59.3007 30.3895 59.3007 29.2866V29.0542C59.3007 28.3205 59.4397 27.6665 59.7177 27.0923C60.0003 26.5135 60.3922 26.0623 60.8935 25.7388C61.3994 25.4106 61.9462 25.2466 62.5341 25.2466C63.4957 25.2466 64.2431 25.5633 64.7763 26.1968C65.3095 26.8302 65.5761 27.7371 65.5761 28.9175V29.4438H60.5654C60.5836 30.173 60.7955 30.7632 61.2011 31.2144C61.6113 31.661 62.1308 31.8843 62.7597 31.8843C63.2063 31.8843 63.5846 31.7931 63.8945 31.6108C64.2044 31.4285 64.4755 31.187 64.708 30.8862L65.4804 31.4878C64.8606 32.4403 63.9309 32.9165 62.6914 32.9165ZM62.5341 26.2856C62.0237 26.2856 61.5953 26.4725 61.249 26.8462C60.9026 27.2153 60.6884 27.7349 60.6064 28.4048H64.3115V28.3091C64.275 27.6665 64.1018 27.1698 63.792 26.8188C63.4821 26.4634 63.0628 26.2856 62.5341 26.2856ZM71.3525 30.8179C71.3525 30.4761 71.2226 30.2118 70.9628 30.0249C70.7076 29.8335 70.2587 29.6694 69.6162 29.5327C68.9781 29.396 68.47 29.2319 68.0918 29.0405C67.7181 28.8491 67.4401 28.6213 67.2578 28.3569C67.08 28.0926 66.9912 27.7782 66.9912 27.4136C66.9912 26.8075 67.2464 26.2948 67.7568 25.8755C68.2718 25.4562 68.928 25.2466 69.7255 25.2466C70.5641 25.2466 71.2431 25.4631 71.7627 25.896C72.2867 26.3289 72.5488 26.8826 72.5488 27.5571H71.2773C71.2773 27.2108 71.1292 26.9123 70.833 26.6616C70.5413 26.411 70.1722 26.2856 69.7255 26.2856C69.2653 26.2856 68.9052 26.3859 68.6455 26.5864C68.3857 26.7869 68.2558 27.049 68.2558 27.3726C68.2558 27.6779 68.3766 27.908 68.6181 28.063C68.8597 28.2179 69.2949 28.366 69.9238 28.5073C70.5572 28.6486 71.0699 28.8172 71.4619 29.0132C71.8538 29.2091 72.1432 29.4461 72.33 29.7241C72.5214 29.9976 72.6171 30.3325 72.6171 30.729C72.6171 31.3898 72.3528 31.9207 71.8242 32.3218C71.2955 32.7183 70.6097 32.9165 69.7666 32.9165C69.1741 32.9165 68.65 32.8117 68.1943 32.6021C67.7386 32.3924 67.3808 32.1007 67.1211 31.7271C66.8658 31.3488 66.7382 30.9409 66.7382 30.5034H68.0029C68.0257 30.9272 68.1943 31.2645 68.5087 31.5151C68.8278 31.7612 69.247 31.8843 69.7666 31.8843C70.2451 31.8843 70.6279 31.7886 70.915 31.5972C71.2067 31.4012 71.3525 31.1414 71.3525 30.8179ZM75.9804 23.5923V25.3833H77.3613V26.3608H75.9804V30.9478C75.9804 31.244 76.042 31.4673 76.165 31.6177C76.288 31.7635 76.4977 31.8364 76.7939 31.8364C76.9397 31.8364 77.1403 31.8091 77.3955 31.7544V32.7798C77.0628 32.8709 76.7392 32.9165 76.4248 32.9165C75.8597 32.9165 75.4336 32.7456 75.1464 32.4038C74.8593 32.062 74.7158 31.5767 74.7158 30.9478V26.3608H73.3691V25.3833H74.7158V23.5923H75.9804ZM80.2187 32.7798H78.9541V25.3833H80.2187V32.7798ZM78.8515 23.4214C78.8515 23.2163 78.913 23.0431 79.0361 22.9019C79.1637 22.7606 79.3505 22.6899 79.5966 22.6899C79.8427 22.6899 80.0296 22.7606 80.1572 22.9019C80.2848 23.0431 80.3486 23.2163 80.3486 23.4214C80.3486 23.6265 80.2848 23.7974 80.1572 23.9341C80.0296 24.0708 79.8427 24.1392 79.5966 24.1392C79.3505 24.1392 79.1637 24.0708 79.0361 23.9341C78.913 23.7974 78.8515 23.6265 78.8515 23.4214ZM81.914 29.0132C81.914 28.2886 82.0553 27.6369 82.3378 27.0581C82.625 26.4793 83.0214 26.0327 83.5273 25.7183C84.0377 25.4038 84.6188 25.2466 85.2705 25.2466C86.2776 25.2466 87.0911 25.5952 87.7109 26.2925C88.3352 26.9897 88.6474 27.9172 88.6474 29.0747V29.1636C88.6474 29.8836 88.5084 30.5308 88.2304 31.105C87.957 31.6746 87.5628 32.119 87.0478 32.438C86.5374 32.757 85.9495 32.9165 85.2841 32.9165C84.2815 32.9165 83.4681 32.5679 82.8437 31.8706C82.2239 31.1733 81.914 30.2505 81.914 29.1021V29.0132ZM83.1855 29.1636C83.1855 29.9839 83.3746 30.6424 83.7529 31.1392C84.1357 31.6359 84.6461 31.8843 85.2841 31.8843C85.9267 31.8843 86.4371 31.6336 86.8154 31.1323C87.1936 30.6265 87.3828 29.9201 87.3828 29.0132C87.3828 28.202 87.1891 27.5457 86.8017 27.0444C86.4189 26.5386 85.9085 26.2856 85.2705 26.2856C84.6461 26.2856 84.1425 26.534 83.7597 27.0308C83.3769 27.5275 83.1855 28.2384 83.1855 29.1636ZM91.4296 25.3833L91.4707 26.313C92.0358 25.6021 92.774 25.2466 93.6855 25.2466C95.2487 25.2466 96.0371 26.1284 96.0507 27.8921V32.7798H94.7861V27.8853C94.7815 27.3521 94.6585 26.9578 94.4169 26.7026C94.18 26.4474 93.8085 26.3198 93.3027 26.3198C92.8925 26.3198 92.5325 26.4292 92.2226 26.6479C91.9127 26.8667 91.6712 27.1538 91.498 27.5093V32.7798H90.2334V25.3833H91.4296Z" fill="#37474F"/>
<path d="M157.928 30.77C157.928 30.4738 157.805 30.2482 157.559 30.0933C157.318 29.9383 156.914 29.8016 156.349 29.6831C155.784 29.5646 155.312 29.4142 154.934 29.2319C154.105 28.8309 153.69 28.2498 153.69 27.4888C153.69 26.8507 153.959 26.3175 154.497 25.8892C155.034 25.4608 155.718 25.2466 156.548 25.2466C157.432 25.2466 158.145 25.4653 158.687 25.9028C159.234 26.3403 159.507 26.9077 159.507 27.605H157.846C157.846 27.286 157.728 27.0216 157.491 26.812C157.254 26.5978 156.939 26.4907 156.548 26.4907C156.183 26.4907 155.884 26.575 155.652 26.7437C155.424 26.9123 155.31 27.1379 155.31 27.4204C155.31 27.6756 155.417 27.8739 155.631 28.0151C155.846 28.1564 156.279 28.3 156.93 28.4458C157.582 28.5871 158.092 28.758 158.462 28.9585C158.835 29.1545 159.111 29.3914 159.289 29.6694C159.471 29.9474 159.562 30.2847 159.562 30.6812C159.562 31.3465 159.286 31.8866 158.735 32.3013C158.184 32.7114 157.461 32.9165 156.568 32.9165C155.962 32.9165 155.422 32.8071 154.948 32.5884C154.474 32.3696 154.105 32.0688 153.84 31.686C153.576 31.3032 153.444 30.8908 153.444 30.4487H155.057C155.08 30.8407 155.228 31.1437 155.502 31.3579C155.775 31.5675 156.137 31.6724 156.589 31.6724C157.026 31.6724 157.359 31.5903 157.587 31.4263C157.814 31.2576 157.928 31.0389 157.928 30.77ZM165.496 32.0552C165.008 32.6294 164.315 32.9165 163.418 32.9165C162.616 32.9165 162.007 32.6818 161.592 32.2124C161.182 31.743 160.977 31.064 160.977 30.1753V25.3833H162.638V30.1548C162.638 31.0936 163.028 31.563 163.807 31.563C164.614 31.563 165.159 31.2736 165.441 30.6948V25.3833H167.102V32.7798H165.537L165.496 32.0552ZM168.504 29.0269C168.504 27.8784 168.772 26.9624 169.31 26.2788C169.853 25.5907 170.57 25.2466 171.464 25.2466C172.307 25.2466 172.97 25.5405 173.453 26.1284L173.528 25.3833H175.025V32.5542C175.025 33.5249 174.722 34.2905 174.116 34.8511C173.514 35.4116 172.701 35.6919 171.675 35.6919C171.133 35.6919 170.602 35.578 170.083 35.3501C169.568 35.1268 169.176 34.8328 168.907 34.4683L169.693 33.4702C170.203 34.0763 170.832 34.3794 171.58 34.3794C172.131 34.3794 172.566 34.229 172.885 33.9282C173.204 33.632 173.364 33.1945 173.364 32.6157V32.1167C172.885 32.6499 172.247 32.9165 171.45 32.9165C170.584 32.9165 169.875 32.5724 169.324 31.8843C168.777 31.1961 168.504 30.2437 168.504 29.0269ZM170.158 29.1704C170.158 29.9132 170.308 30.4989 170.609 30.9272C170.914 31.3511 171.336 31.563 171.874 31.563C172.544 31.563 173.04 31.2759 173.364 30.7017V27.4478C173.049 26.8872 172.557 26.6069 171.887 26.6069C171.34 26.6069 170.914 26.8234 170.609 27.2563C170.308 27.6893 170.158 28.3273 170.158 29.1704ZM176.447 29.0269C176.447 27.8784 176.716 26.9624 177.254 26.2788C177.796 25.5907 178.514 25.2466 179.407 25.2466C180.25 25.2466 180.913 25.5405 181.396 26.1284L181.471 25.3833H182.968V32.5542C182.968 33.5249 182.665 34.2905 182.059 34.8511C181.458 35.4116 180.644 35.6919 179.619 35.6919C179.076 35.6919 178.546 35.578 178.026 35.3501C177.511 35.1268 177.119 34.8328 176.85 34.4683L177.636 33.4702C178.147 34.0763 178.776 34.3794 179.523 34.3794C180.075 34.3794 180.51 34.229 180.829 33.9282C181.148 33.632 181.307 33.1945 181.307 32.6157V32.1167C180.829 32.6499 180.191 32.9165 179.393 32.9165C178.527 32.9165 177.819 32.5724 177.267 31.8843C176.72 31.1961 176.447 30.2437 176.447 29.0269ZM178.101 29.1704C178.101 29.9132 178.252 30.4989 178.552 30.9272C178.858 31.3511 179.279 31.563 179.817 31.563C180.487 31.563 180.984 31.2759 181.307 30.7017V27.4478C180.993 26.8872 180.501 26.6069 179.831 26.6069C179.284 26.6069 178.858 26.8234 178.552 27.2563C178.252 27.6893 178.101 28.3273 178.101 29.1704ZM187.938 32.9165C186.885 32.9165 186.031 32.5861 185.375 31.9253C184.723 31.2599 184.397 30.3758 184.397 29.2729V29.0679C184.397 28.3296 184.538 27.6711 184.821 27.0923C185.108 26.509 185.509 26.0555 186.024 25.7319C186.539 25.4084 187.113 25.2466 187.747 25.2466C188.754 25.2466 189.531 25.5679 190.078 26.2104C190.629 26.853 190.905 27.7622 190.905 28.938V29.6079H186.072C186.122 30.2186 186.325 30.7017 186.68 31.0571C187.04 31.4126 187.492 31.5903 188.034 31.5903C188.795 31.5903 189.415 31.2827 189.893 30.6675L190.789 31.522C190.492 31.964 190.096 32.3081 189.599 32.5542C189.107 32.7957 188.553 32.9165 187.938 32.9165ZM187.74 26.5796C187.284 26.5796 186.915 26.7391 186.632 27.0581C186.354 27.3771 186.177 27.8215 186.099 28.3911H189.264V28.2681C189.228 27.7121 189.08 27.2928 188.82 27.0103C188.56 26.7231 188.2 26.5796 187.74 26.5796ZM196.346 30.77C196.346 30.4738 196.223 30.2482 195.977 30.0933C195.736 29.9383 195.332 29.8016 194.767 29.6831C194.202 29.5646 193.73 29.4142 193.352 29.2319C192.523 28.8309 192.108 28.2498 192.108 27.4888C192.108 26.8507 192.377 26.3175 192.915 25.8892C193.452 25.4608 194.136 25.2466 194.965 25.2466C195.85 25.2466 196.563 25.4653 197.105 25.9028C197.652 26.3403 197.925 26.9077 197.925 27.605H196.264C196.264 27.286 196.146 27.0216 195.909 26.812C195.672 26.5978 195.357 26.4907 194.965 26.4907C194.601 26.4907 194.302 26.575 194.07 26.7437C193.842 26.9123 193.728 27.1379 193.728 27.4204C193.728 27.6756 193.835 27.8739 194.049 28.0151C194.264 28.1564 194.697 28.3 195.348 28.4458C196 28.5871 196.51 28.758 196.88 28.9585C197.253 29.1545 197.529 29.3914 197.707 29.6694C197.889 29.9474 197.98 30.2847 197.98 30.6812C197.98 31.3465 197.704 31.8866 197.153 32.3013C196.602 32.7114 195.879 32.9165 194.986 32.9165C194.38 32.9165 193.84 32.8071 193.366 32.5884C192.892 32.3696 192.523 32.0688 192.258 31.686C191.994 31.3032 191.862 30.8908 191.862 30.4487H193.475C193.498 30.8407 193.646 31.1437 193.92 31.3579C194.193 31.5675 194.555 31.6724 195.006 31.6724C195.444 31.6724 195.777 31.5903 196.005 31.4263C196.232 31.2576 196.346 31.0389 196.346 30.77ZM201.514 23.5854V25.3833H202.82V26.6138H201.514V30.7427C201.514 31.0252 201.569 31.2303 201.678 31.3579C201.792 31.481 201.993 31.5425 202.28 31.5425C202.471 31.5425 202.665 31.5197 202.861 31.4741V32.7593C202.483 32.8641 202.118 32.9165 201.767 32.9165C200.491 32.9165 199.853 32.2124 199.853 30.8042V26.6138H198.636V25.3833H199.853V23.5854H201.514ZM205.862 32.7798H204.201V25.3833H205.862V32.7798ZM204.098 23.4624C204.098 23.2072 204.178 22.9953 204.338 22.8267C204.502 22.658 204.734 22.5737 205.035 22.5737C205.336 22.5737 205.568 22.658 205.732 22.8267C205.896 22.9953 205.978 23.2072 205.978 23.4624C205.978 23.7131 205.896 23.9227 205.732 24.0913C205.568 24.2554 205.336 24.3374 205.035 24.3374C204.734 24.3374 204.502 24.2554 204.338 24.0913C204.178 23.9227 204.098 23.7131 204.098 23.4624ZM207.366 29.0132C207.366 28.2886 207.509 27.6369 207.797 27.0581C208.084 26.4748 208.487 26.0282 209.006 25.7183C209.526 25.4038 210.123 25.2466 210.798 25.2466C211.796 25.2466 212.604 25.5679 213.224 26.2104C213.849 26.853 214.186 27.7052 214.236 28.7671L214.243 29.1567C214.243 29.8859 214.102 30.5376 213.819 31.1118C213.541 31.686 213.14 32.1304 212.616 32.4448C212.096 32.7593 211.495 32.9165 210.811 32.9165C209.768 32.9165 208.931 32.5701 208.302 31.8774C207.678 31.1802 207.366 30.2528 207.366 29.0952V29.0132ZM209.027 29.1567C209.027 29.9178 209.184 30.5148 209.499 30.9478C209.813 31.3761 210.251 31.5903 210.811 31.5903C211.372 31.5903 211.807 31.3716 212.117 30.9341C212.431 30.4966 212.589 29.8563 212.589 29.0132C212.589 28.2658 212.427 27.6733 212.103 27.2358C211.784 26.7983 211.349 26.5796 210.798 26.5796C210.255 26.5796 209.825 26.7961 209.506 27.229C209.186 27.6574 209.027 28.3 209.027 29.1567ZM217.189 25.3833L217.237 26.2378C217.784 25.577 218.502 25.2466 219.39 25.2466C220.931 25.2466 221.714 26.1284 221.742 27.8921V32.7798H220.081V27.9878C220.081 27.5184 219.978 27.172 219.773 26.9487C219.573 26.7209 219.242 26.6069 218.782 26.6069C218.112 26.6069 217.613 26.91 217.285 27.5161V32.7798H215.624V25.3833H217.189Z" fill="#37474F"/>
<path opacity="0.8" d="M283.784 30.8179C283.784 30.4761 283.654 30.2118 283.394 30.0249C283.139 29.8335 282.69 29.6694 282.047 29.5327C281.409 29.396 280.901 29.2319 280.523 29.0405C280.149 28.8491 279.871 28.6213 279.689 28.3569C279.511 28.0926 279.422 27.7782 279.422 27.4136C279.422 26.8075 279.677 26.2948 280.188 25.8755C280.703 25.4562 281.359 25.2466 282.157 25.2466C282.995 25.2466 283.674 25.4631 284.194 25.896C284.718 26.3289 284.98 26.8826 284.98 27.5571H283.708C283.708 27.2108 283.56 26.9123 283.264 26.6616C282.972 26.411 282.603 26.2856 282.157 26.2856C281.696 26.2856 281.336 26.3859 281.077 26.5864C280.817 26.7869 280.687 27.049 280.687 27.3726C280.687 27.6779 280.808 27.908 281.049 28.063C281.291 28.2179 281.726 28.366 282.355 28.5073C282.988 28.6486 283.501 28.8172 283.893 29.0132C284.285 29.2091 284.574 29.4461 284.761 29.7241C284.953 29.9976 285.048 30.3325 285.048 30.729C285.048 31.3898 284.784 31.9207 284.255 32.3218C283.727 32.7183 283.041 32.9165 282.198 32.9165C281.605 32.9165 281.081 32.8117 280.625 32.6021C280.17 32.3924 279.812 32.1007 279.552 31.7271C279.297 31.3488 279.169 30.9409 279.169 30.5034H280.434C280.457 30.9272 280.625 31.2645 280.94 31.5151C281.259 31.7612 281.678 31.8843 282.198 31.8843C282.676 31.8843 283.059 31.7886 283.346 31.5972C283.638 31.4012 283.784 31.1414 283.784 30.8179ZM291.262 32.0483C290.77 32.6271 290.048 32.9165 289.095 32.9165C288.307 32.9165 287.705 32.6886 287.29 32.2329C286.88 31.7726 286.673 31.0936 286.668 30.1958V25.3833H287.933V30.1616C287.933 31.2827 288.389 31.8433 289.3 31.8433C290.266 31.8433 290.909 31.4832 291.228 30.7632V25.3833H292.493V32.7798H291.289L291.262 32.0483ZM294.12 29.02C294.12 27.867 294.386 26.951 294.919 26.272C295.453 25.5884 296.159 25.2466 297.038 25.2466C297.941 25.2466 298.645 25.5656 299.151 26.2036L299.212 25.3833H300.368V32.6021C300.368 33.5591 300.083 34.3133 299.513 34.8647C298.948 35.4162 298.187 35.6919 297.23 35.6919C296.697 35.6919 296.175 35.578 295.664 35.3501C295.154 35.1222 294.764 34.8101 294.495 34.4136L295.152 33.6548C295.694 34.3247 296.357 34.6597 297.141 34.6597C297.756 34.6597 298.235 34.4865 298.577 34.1401C298.923 33.7938 299.096 33.3062 299.096 32.6772V32.0415C298.59 32.6248 297.9 32.9165 297.025 32.9165C296.159 32.9165 295.457 32.5679 294.919 31.8706C294.386 31.1733 294.12 30.2231 294.12 29.02ZM295.391 29.1636C295.391 29.9976 295.562 30.6538 295.904 31.1323C296.245 31.6063 296.724 31.8433 297.339 31.8433C298.137 31.8433 298.722 31.481 299.096 30.7563V27.3794C298.709 26.673 298.128 26.3198 297.353 26.3198C296.738 26.3198 296.257 26.5591 295.911 27.0376C295.564 27.5161 295.391 28.2248 295.391 29.1636ZM301.981 29.02C301.981 27.867 302.247 26.951 302.781 26.272C303.314 25.5884 304.02 25.2466 304.9 25.2466C305.802 25.2466 306.506 25.5656 307.012 26.2036L307.074 25.3833H308.229V32.6021C308.229 33.5591 307.944 34.3133 307.374 34.8647C306.809 35.4162 306.048 35.6919 305.091 35.6919C304.558 35.6919 304.036 35.578 303.526 35.3501C303.015 35.1222 302.626 34.8101 302.357 34.4136L303.013 33.6548C303.555 34.3247 304.218 34.6597 305.002 34.6597C305.618 34.6597 306.096 34.4865 306.438 34.1401C306.784 33.7938 306.957 33.3062 306.957 32.6772V32.0415C306.452 32.6248 305.761 32.9165 304.886 32.9165C304.02 32.9165 303.318 32.5679 302.781 31.8706C302.247 31.1733 301.981 30.2231 301.981 29.02ZM303.252 29.1636C303.252 29.9976 303.423 30.6538 303.765 31.1323C304.107 31.6063 304.585 31.8433 305.201 31.8433C305.998 31.8433 306.584 31.481 306.957 30.7563V27.3794C306.57 26.673 305.989 26.3198 305.214 26.3198C304.599 26.3198 304.118 26.5591 303.772 27.0376C303.425 27.5161 303.252 28.2248 303.252 29.1636ZM313.212 32.9165C312.21 32.9165 311.394 32.5884 310.765 31.9321C310.136 31.2713 309.822 30.3895 309.822 29.2866V29.0542C309.822 28.3205 309.961 27.6665 310.239 27.0923C310.521 26.5135 310.913 26.0623 311.414 25.7388C311.92 25.4106 312.467 25.2466 313.055 25.2466C314.017 25.2466 314.764 25.5633 315.297 26.1968C315.83 26.8302 316.097 27.7371 316.097 28.9175V29.4438H311.086C311.105 30.173 311.316 30.7632 311.722 31.2144C312.132 31.661 312.652 31.8843 313.281 31.8843C313.727 31.8843 314.106 31.7931 314.415 31.6108C314.725 31.4285 314.996 31.187 315.229 30.8862L316.001 31.4878C315.382 32.4403 314.452 32.9165 313.212 32.9165ZM313.055 26.2856C312.545 26.2856 312.116 26.4725 311.77 26.8462C311.424 27.2153 311.209 27.7349 311.127 28.4048H314.832V28.3091C314.796 27.6665 314.623 27.1698 314.313 26.8188C314.003 26.4634 313.584 26.2856 313.055 26.2856ZM321.873 30.8179C321.873 30.4761 321.744 30.2118 321.484 30.0249C321.229 29.8335 320.78 29.6694 320.137 29.5327C319.499 29.396 318.991 29.2319 318.613 29.0405C318.239 28.8491 317.961 28.6213 317.779 28.3569C317.601 28.0926 317.512 27.7782 317.512 27.4136C317.512 26.8075 317.767 26.2948 318.278 25.8755C318.793 25.4562 319.449 25.2466 320.246 25.2466C321.085 25.2466 321.764 25.4631 322.284 25.896C322.808 26.3289 323.07 26.8826 323.07 27.5571H321.798C321.798 27.2108 321.65 26.9123 321.354 26.6616C321.062 26.411 320.693 26.2856 320.246 26.2856C319.786 26.2856 319.426 26.3859 319.166 26.5864C318.907 26.7869 318.777 27.049 318.777 27.3726C318.777 27.6779 318.898 27.908 319.139 28.063C319.381 28.2179 319.816 28.366 320.445 28.5073C321.078 28.6486 321.591 28.8172 321.983 29.0132C322.375 29.2091 322.664 29.4461 322.851 29.7241C323.042 29.9976 323.138 30.3325 323.138 30.729C323.138 31.3898 322.874 31.9207 322.345 32.3218C321.816 32.7183 321.131 32.9165 320.287 32.9165C319.695 32.9165 319.171 32.8117 318.715 32.6021C318.259 32.3924 317.902 32.1007 317.642 31.7271C317.387 31.3488 317.259 30.9409 317.259 30.5034H318.524C318.547 30.9272 318.715 31.2645 319.03 31.5151C319.349 31.7612 319.768 31.8843 320.287 31.8843C320.766 31.8843 321.149 31.7886 321.436 31.5972C321.728 31.4012 321.873 31.1414 321.873 30.8179ZM326.501 23.5923V25.3833H327.882V26.3608H326.501V30.9478C326.501 31.244 326.563 31.4673 326.686 31.6177C326.809 31.7635 327.019 31.8364 327.315 31.8364C327.461 31.8364 327.661 31.8091 327.916 31.7544V32.7798C327.584 32.8709 327.26 32.9165 326.946 32.9165C326.381 32.9165 325.954 32.7456 325.667 32.4038C325.38 32.062 325.237 31.5767 325.237 30.9478V26.3608H323.89V25.3833H325.237V23.5923H326.501ZM330.74 32.7798H329.475V25.3833H330.74V32.7798ZM329.372 23.4214C329.372 23.2163 329.434 23.0431 329.557 22.9019C329.685 22.7606 329.871 22.6899 330.118 22.6899C330.364 22.6899 330.55 22.7606 330.678 22.9019C330.806 23.0431 330.87 23.2163 330.87 23.4214C330.87 23.6265 330.806 23.7974 330.678 23.9341C330.55 24.0708 330.364 24.1392 330.118 24.1392C329.871 24.1392 329.685 24.0708 329.557 23.9341C329.434 23.7974 329.372 23.6265 329.372 23.4214ZM332.435 29.0132C332.435 28.2886 332.576 27.6369 332.859 27.0581C333.146 26.4793 333.542 26.0327 334.048 25.7183C334.559 25.4038 335.14 25.2466 335.791 25.2466C336.799 25.2466 337.612 25.5952 338.232 26.2925C338.856 26.9897 339.168 27.9172 339.168 29.0747V29.1636C339.168 29.8836 339.029 30.5308 338.751 31.105C338.478 31.6746 338.084 32.119 337.569 32.438C337.058 32.757 336.47 32.9165 335.805 32.9165C334.802 32.9165 333.989 32.5679 333.365 31.8706C332.745 31.1733 332.435 30.2505 332.435 29.1021V29.0132ZM333.706 29.1636C333.706 29.9839 333.896 30.6424 334.274 31.1392C334.657 31.6359 335.167 31.8843 335.805 31.8843C336.448 31.8843 336.958 31.6336 337.336 31.1323C337.715 30.6265 337.904 29.9201 337.904 29.0132C337.904 28.202 337.71 27.5457 337.323 27.0444C336.94 26.5386 336.429 26.2856 335.791 26.2856C335.167 26.2856 334.663 26.534 334.281 27.0308C333.898 27.5275 333.706 28.2384 333.706 29.1636ZM341.951 25.3833L341.992 26.313C342.557 25.6021 343.295 25.2466 344.206 25.2466C345.77 25.2466 346.558 26.1284 346.572 27.8921V32.7798H345.307V27.8853C345.302 27.3521 345.179 26.9578 344.938 26.7026C344.701 26.4474 344.329 26.3198 343.824 26.3198C343.413 26.3198 343.053 26.4292 342.744 26.6479C342.434 26.8667 342.192 27.1538 342.019 27.5093V32.7798H340.754V25.3833H341.951Z" fill="#37474F"/>
<g filter="url(#filter0_ddi_631_15708)">
<path fill-rule="evenodd" clip-rule="evenodd" d="M0 49.9702V279H375V49.9702H0Z" fill="#ECEFF0"/>
</g>
<path opacity="0.15" fill-rule="evenodd" clip-rule="evenodd" d="M267.708 263.384C267.708 264.53 266.771 265.466 265.625 265.466H113.542C112.396 265.466 111.458 264.53 111.458 263.384V242.564C111.458 241.418 112.396 240.481 113.542 240.481H265.625C266.771 240.481 267.708 241.418 267.708 242.564V263.384Z" fill="#37474F"/>
<path opacity="0.8" d="M78.4576 261.923L77.0504 261.085C77.4658 260.433 77.7487 259.864 77.8991 259.377C78.0566 258.897 78.139 258.407 78.1461 257.905V255.875H80.4987L80.4879 257.755C80.4808 258.514 80.2874 259.273 79.9078 260.032C79.5354 260.799 79.052 261.429 78.4576 261.923Z" fill="#37474F"/>
<g opacity="0.8">
<path d="M21.3485 255.761C21.3485 255.155 21.4237 254.672 21.5741 254.312C21.7245 253.951 22.0207 253.557 22.4628 253.129C22.9094 252.696 23.192 252.388 23.3104 252.206C23.4927 251.928 23.5839 251.627 23.5839 251.304C23.5839 250.875 23.4768 250.549 23.2626 250.326C23.053 250.098 22.7431 249.984 22.3329 249.984C21.941 249.984 21.6242 250.096 21.3827 250.319C21.1457 250.538 21.0272 250.837 21.0272 251.215H19.3661C19.3752 250.408 19.6487 249.77 20.1864 249.301C20.7287 248.831 21.4442 248.597 22.3329 248.597C23.2489 248.597 23.9621 248.829 24.4725 249.294C24.9875 249.759 25.245 250.408 25.245 251.242C25.245 251.985 24.8987 252.716 24.2059 253.437L23.3651 254.264C23.0643 254.605 22.9094 255.104 22.9003 255.761H21.3485ZM21.2323 257.887C21.2323 257.618 21.3166 257.401 21.4852 257.237C21.6539 257.069 21.8817 256.984 22.1688 256.984C22.4605 256.984 22.6906 257.071 22.8593 257.244C23.0279 257.413 23.1122 257.627 23.1122 257.887C23.1122 258.137 23.0302 258.347 22.8661 258.516C22.702 258.684 22.4696 258.769 22.1688 258.769C21.8681 258.769 21.6356 258.684 21.4716 258.516C21.3121 258.347 21.2323 258.137 21.2323 257.887ZM31.4077 258.687H29.7534V250.695L27.313 251.529V250.128L31.1958 248.699H31.4077V258.687ZM41.9591 258.687H35.2667V257.545L38.5821 253.929C39.0606 253.396 39.4002 252.951 39.6007 252.596C39.8058 252.236 39.9083 251.876 39.9083 251.516C39.9083 251.042 39.7739 250.659 39.505 250.367C39.2406 250.076 38.8829 249.93 38.4317 249.93C37.894 249.93 37.477 250.094 37.1808 250.422C36.8845 250.75 36.7364 251.199 36.7364 251.769H35.0753C35.0753 251.162 35.212 250.618 35.4854 250.135C35.7634 249.647 36.1576 249.269 36.6681 249C37.183 248.731 37.7755 248.597 38.4454 248.597C39.4115 248.597 40.1726 248.84 40.7286 249.328C41.2892 249.811 41.5694 250.481 41.5694 251.338C41.5694 251.835 41.4281 252.356 41.1456 252.903C40.8676 253.446 40.4096 254.063 39.7716 254.756L37.338 257.36H41.9591V258.687ZM45.5446 252.951H46.5563C47.0668 252.947 47.4701 252.814 47.7663 252.555C48.0671 252.295 48.2175 251.919 48.2175 251.427C48.2175 250.953 48.0921 250.586 47.8415 250.326C47.5954 250.062 47.2171 249.93 46.7067 249.93C46.2601 249.93 45.8933 250.06 45.6061 250.319C45.319 250.575 45.1755 250.91 45.1755 251.324H43.5143C43.5143 250.814 43.6488 250.349 43.9177 249.93C44.1911 249.51 44.5694 249.185 45.0524 248.952C45.5401 248.715 46.0847 248.597 46.6862 248.597C47.6797 248.597 48.459 248.847 49.0241 249.349C49.5938 249.845 49.8786 250.538 49.8786 251.427C49.8786 251.873 49.7351 252.295 49.4479 252.691C49.1654 253.083 48.7985 253.38 48.3474 253.58C48.8942 253.767 49.3089 254.061 49.5915 254.462C49.8786 254.863 50.0222 255.341 50.0222 255.897C50.0222 256.791 49.7145 257.502 49.0993 258.03C48.4886 258.559 47.6843 258.823 46.6862 258.823C45.7292 258.823 44.9453 258.568 44.3347 258.058C43.724 257.547 43.4186 256.868 43.4186 256.021H45.0798C45.0798 256.458 45.2256 256.813 45.5173 257.087C45.8135 257.36 46.21 257.497 46.7067 257.497C47.2217 257.497 47.6273 257.36 47.9235 257.087C48.2198 256.813 48.3679 256.417 48.3679 255.897C48.3679 255.373 48.2129 254.97 47.903 254.688C47.5931 254.405 47.1328 254.264 46.5222 254.264H45.5446V252.951Z" fill="#37474F"/>
</g>
<path opacity="0.8" d="M299.893 255.649C300.38 255.649 300.756 255.789 301.02 256.068C301.285 256.34 301.418 256.684 301.418 257.1C301.418 257.508 301.285 257.848 301.02 258.12C300.756 258.385 300.38 258.518 299.893 258.518C299.427 258.518 299.058 258.385 298.786 258.12C298.514 257.855 298.378 257.515 298.378 257.1C298.378 256.684 298.51 256.34 298.775 256.068C299.04 255.789 299.413 255.649 299.893 255.649Z" fill="#37474F"/>
<path opacity="0.6" fill-rule="evenodd" clip-rule="evenodd" d="M45.8334 198.84H40.625V204.045H32.2917V198.84H27.0834L36.4584 189.47L45.8334 198.84ZM29.1667 210.291V208.209H43.75V210.291H29.1667Z" fill="#37474F"/>
<path opacity="0.6" fill-rule="evenodd" clip-rule="evenodd" d="M354.167 190.511H338.646C337.917 190.511 337.292 190.824 336.875 191.448L331.25 199.881L336.875 208.313C337.292 208.834 337.917 209.25 338.646 209.25H354.167C355.312 209.25 356.25 208.313 356.25 207.168V192.593C356.25 191.448 355.312 190.511 354.167 190.511ZM351.042 203.628L349.583 205.086L345.833 201.338L342.083 205.086L340.625 203.628L344.375 199.881L340.625 196.133L342.083 194.675L345.833 198.423L349.583 194.675L351.042 196.133L347.292 199.881L351.042 203.628Z" fill="#37474F"/>
<g filter="url(#filter1_ddd_631_15708)">
<path fill-rule="evenodd" clip-rule="evenodd" d="M344.792 270.672C355.147 270.672 363.542 262.282 363.542 251.933C363.542 241.584 355.147 233.194 344.792 233.194C334.436 233.194 326.042 241.584 326.042 251.933C326.042 262.282 334.436 270.672 344.792 270.672Z" fill="#4CB5AB"/>
<path d="M363.392 251.933C363.392 262.199 355.064 270.522 344.792 270.522C334.519 270.522 326.192 262.199 326.192 251.933C326.192 241.667 334.519 233.344 344.792 233.344C355.064 233.344 363.392 241.667 363.392 251.933Z" stroke="#4CB5AB" stroke-width="0.3"/>
<path d="M363.392 251.933C363.392 262.199 355.064 270.522 344.792 270.522C334.519 270.522 326.192 262.199 326.192 251.933C326.192 241.667 334.519 233.344 344.792 233.344C355.064 233.344 363.392 241.667 363.392 251.933Z" stroke="url(#paint0_linear_631_15708)" stroke-width="0.3"/>
<path d="M363.392 251.933C363.392 262.199 355.064 270.522 344.792 270.522C334.519 270.522 326.192 262.199 326.192 251.933C326.192 241.667 334.519 233.344 344.792 233.344C355.064 233.344 363.392 241.667 363.392 251.933Z" stroke="#009688" stroke-opacity="0.12" stroke-width="0.3"/>
</g>
<path fill-rule="evenodd" clip-rule="evenodd" d="M352.187 251.725V247.561H354.271V253.807H338.437L342.187 257.555L340.729 259.012L334.479 252.766L340.729 246.52L342.187 247.977L338.437 251.725H352.187Z" fill="white"/>
<path d="M46.4463 151.172C46.3317 150.943 46.2386 150.535 46.167 149.947C45.2432 150.907 44.1403 151.387 42.8584 151.387C41.7126 151.387 40.7708 151.064 40.0332 150.42C39.3027 149.768 38.9375 148.945 38.9375 147.949C38.9375 146.739 39.3958 145.801 40.3125 145.135C41.2363 144.462 42.5326 144.125 44.2012 144.125H46.1348V143.212C46.1348 142.517 45.9271 141.966 45.5117 141.558C45.0964 141.142 44.4841 140.935 43.6748 140.935C42.9658 140.935 42.3714 141.114 41.8916 141.472C41.4118 141.83 41.1719 142.263 41.1719 142.771H39.1738C39.1738 142.191 39.3779 141.633 39.7861 141.096C40.2015 140.551 40.7601 140.122 41.4619 139.807C42.1709 139.492 42.9479 139.334 43.793 139.334C45.1322 139.334 46.1813 139.671 46.9404 140.344C47.6995 141.01 48.0934 141.93 48.1221 143.104V148.454C48.1221 149.521 48.2581 150.37 48.5303 151V151.172H46.4463ZM43.1484 149.657C43.7715 149.657 44.3623 149.496 44.9209 149.174C45.4795 148.852 45.8841 148.433 46.1348 147.917V145.532H44.5771C42.1423 145.532 40.9248 146.245 40.9248 147.67C40.9248 148.293 41.1325 148.78 41.5479 149.131C41.9632 149.482 42.4967 149.657 43.1484 149.657Z" fill="#37474F"/>
<path d="M82.8079 148.089C82.8079 147.552 82.6038 147.136 82.1956 146.843C81.7945 146.542 81.0891 146.284 80.0793 146.069C79.0767 145.854 78.2782 145.597 77.6838 145.296C77.0966 144.995 76.6597 144.637 76.3733 144.222C76.094 143.806 75.9543 143.312 75.9543 142.739C75.9543 141.787 76.3554 140.981 77.1575 140.322C77.9667 139.663 78.998 139.334 80.2512 139.334C81.5689 139.334 82.636 139.674 83.4524 140.354C84.276 141.035 84.6877 141.905 84.6877 142.965H82.6897C82.6897 142.421 82.4569 141.951 81.9915 141.558C81.5331 141.164 80.953 140.967 80.2512 140.967C79.5279 140.967 78.9622 141.124 78.554 141.439C78.1458 141.755 77.9417 142.166 77.9417 142.675C77.9417 143.155 78.1314 143.516 78.511 143.76C78.8905 144.003 79.5745 144.236 80.5627 144.458C81.5582 144.68 82.3639 144.945 82.9797 145.253C83.5956 145.561 84.0504 145.933 84.344 146.37C84.6448 146.8 84.7952 147.326 84.7952 147.949C84.7952 148.988 84.3798 149.822 83.5491 150.452C82.7183 151.075 81.6405 151.387 80.3157 151.387C79.3847 151.387 78.5611 151.222 77.845 150.893C77.1288 150.563 76.5667 150.105 76.1584 149.518C75.7574 148.923 75.5569 148.282 75.5569 147.595H77.5442C77.58 148.261 77.845 148.791 78.3391 149.185C78.8404 149.571 79.4993 149.765 80.3157 149.765C81.0676 149.765 81.6692 149.614 82.1204 149.313C82.5787 149.006 82.8079 148.597 82.8079 148.089Z" fill="#37474F"/>
<path d="M111.478 145.264C111.478 143.48 111.901 142.048 112.746 140.967C113.591 139.878 114.697 139.334 116.065 139.334C117.426 139.334 118.504 139.799 119.298 140.73V134.672H121.286V151.172H119.46L119.363 149.926C118.568 150.9 117.462 151.387 116.044 151.387C114.697 151.387 113.598 150.835 112.746 149.732C111.901 148.63 111.478 147.19 111.478 145.414V145.264ZM113.465 145.489C113.465 146.807 113.738 147.838 114.282 148.583C114.826 149.328 115.578 149.7 116.538 149.7C117.798 149.7 118.718 149.134 119.298 148.003V142.664C118.704 141.568 117.791 141.021 116.559 141.021C115.585 141.021 114.826 141.396 114.282 142.148C113.738 142.9 113.465 144.014 113.465 145.489Z" fill="#37474F"/>
<path d="M151.782 151.172V141.085H149.945V139.549H151.782V138.356C151.782 137.11 152.115 136.147 152.781 135.467C153.447 134.786 154.389 134.446 155.606 134.446C156.065 134.446 156.52 134.507 156.971 134.629L156.863 136.24C156.527 136.176 156.169 136.144 155.789 136.144C155.145 136.144 154.647 136.333 154.296 136.713C153.945 137.085 153.77 137.622 153.77 138.324V139.549H156.251V141.085H153.77V151.172H151.782Z" fill="#37474F"/>
<path d="M184.438 145.264C184.438 143.452 184.857 142.012 185.695 140.945C186.532 139.871 187.643 139.334 189.025 139.334C190.443 139.334 191.549 139.835 192.344 140.838L192.441 139.549H194.256V150.893C194.256 152.396 193.809 153.582 192.913 154.448C192.025 155.315 190.829 155.748 189.325 155.748C188.488 155.748 187.668 155.569 186.865 155.211C186.063 154.853 185.451 154.362 185.029 153.739L186.06 152.547C186.912 153.6 187.954 154.126 189.186 154.126C190.153 154.126 190.905 153.854 191.442 153.31C191.986 152.765 192.258 151.999 192.258 151.011V150.012C191.463 150.928 190.378 151.387 189.003 151.387C187.643 151.387 186.54 150.839 185.695 149.743C184.857 148.647 184.438 147.154 184.438 145.264ZM186.436 145.489C186.436 146.8 186.704 147.831 187.241 148.583C187.779 149.328 188.531 149.7 189.497 149.7C190.751 149.7 191.671 149.131 192.258 147.992V142.686C191.649 141.576 190.736 141.021 189.519 141.021C188.552 141.021 187.796 141.396 187.252 142.148C186.708 142.9 186.436 144.014 186.436 145.489Z" fill="#37474F"/>
<path d="M223.474 140.956C224.355 139.875 225.501 139.334 226.912 139.334C229.368 139.334 230.607 140.72 230.629 143.491V151.172H228.641V143.48C228.634 142.643 228.441 142.023 228.061 141.622C227.689 141.221 227.105 141.021 226.31 141.021C225.666 141.021 225.1 141.192 224.613 141.536C224.126 141.88 223.746 142.331 223.474 142.89V151.172H221.487V134.672H223.474V140.956Z" fill="#37474F"/>
<path d="M263.424 139.549V152.515C263.424 154.749 262.41 155.866 260.384 155.866C259.947 155.866 259.542 155.802 259.17 155.673V154.083C259.399 154.14 259.7 154.169 260.072 154.169C260.516 154.169 260.853 154.047 261.082 153.804C261.318 153.567 261.437 153.152 261.437 152.558V139.549H263.424ZM261.232 136.466C261.232 136.151 261.329 135.882 261.522 135.66C261.723 135.431 262.013 135.316 262.393 135.316C262.779 135.316 263.073 135.427 263.273 135.649C263.474 135.871 263.574 136.144 263.574 136.466C263.574 136.788 263.474 137.057 263.273 137.271C263.073 137.486 262.779 137.594 262.393 137.594C262.006 137.594 261.716 137.486 261.522 137.271C261.329 137.057 261.232 136.788 261.232 136.466Z" fill="#37474F"/>
<path d="M298.131 145.79L296.885 147.09V151.172H294.898V134.672H296.885V144.651L297.948 143.373L301.569 139.549H303.986L299.463 144.404L304.512 151.172H302.181L298.131 145.79Z" fill="#37474F"/>
<path d="M336.405 151.172H334.418V134.672H336.405V151.172Z" fill="#37474F"/>
<path d="M78.1243 203.684H84.9241V205.306H75.6965V203.845L82.1096 195.327H75.7932V193.683H84.6018V195.09L78.1243 203.684Z" fill="#37474F"/>
<path d="M116.613 197.926L119.191 193.683H121.511L117.709 199.43L121.63 205.306H119.331L116.645 200.956L113.96 205.306H111.65L115.571 199.43L111.768 193.683H114.067L116.613 197.926Z" fill="#37474F"/>
<path d="M153.533 203.899C154.242 203.899 154.862 203.684 155.392 203.254C155.922 202.825 156.215 202.288 156.272 201.643H158.152C158.117 202.309 157.887 202.943 157.465 203.544C157.042 204.146 156.477 204.626 155.768 204.984C155.066 205.342 154.321 205.521 153.533 205.521C151.951 205.521 150.69 204.995 149.752 203.942C148.821 202.882 148.355 201.435 148.355 199.602V199.269C148.355 198.138 148.563 197.131 148.979 196.25C149.394 195.37 149.988 194.686 150.762 194.199C151.542 193.712 152.463 193.468 153.522 193.468C154.826 193.468 155.907 193.859 156.767 194.639C157.633 195.42 158.095 196.433 158.152 197.679H156.272C156.215 196.927 155.929 196.311 155.413 195.832C154.905 195.345 154.274 195.101 153.522 195.101C152.513 195.101 151.729 195.466 151.17 196.197C150.618 196.92 150.343 197.969 150.343 199.344V199.72C150.343 201.059 150.618 202.091 151.17 202.814C151.721 203.537 152.509 203.899 153.533 203.899Z" fill="#37474F"/>
<path d="M189.594 202.61L192.473 193.683H194.503L190.335 205.306H188.821L184.61 193.683H186.64L189.594 202.61Z" fill="#37474F"/>
<path d="M231.209 199.624C231.209 201.4 230.8 202.828 229.984 203.91C229.168 204.984 228.072 205.521 226.697 205.521C225.229 205.521 224.094 205.002 223.292 203.963L223.195 205.306H221.369V188.806H223.356V194.961C224.158 193.966 225.265 193.468 226.675 193.468C228.086 193.468 229.193 194.002 229.995 195.069C230.804 196.136 231.209 197.597 231.209 199.452V199.624ZM229.221 199.398C229.221 198.044 228.96 196.999 228.437 196.261C227.914 195.524 227.162 195.155 226.181 195.155C224.871 195.155 223.929 195.764 223.356 196.981V202.008C223.965 203.226 224.914 203.834 226.203 203.834C227.155 203.834 227.896 203.466 228.426 202.728C228.956 201.99 229.221 200.88 229.221 199.398Z" fill="#37474F"/>
<path d="M259.814 193.683L259.879 195.144C260.767 194.027 261.927 193.468 263.359 193.468C265.816 193.468 267.055 194.854 267.076 197.625V205.306H265.089V197.615C265.082 196.777 264.888 196.157 264.509 195.756C264.136 195.355 263.553 195.155 262.758 195.155C262.113 195.155 261.548 195.327 261.061 195.67C260.574 196.014 260.194 196.465 259.922 197.024V205.306H257.935V193.683H259.814Z" fill="#37474F"/>
<path d="M292.685 193.683L292.739 194.972C293.591 193.97 294.74 193.468 296.187 193.468C297.812 193.468 298.919 194.091 299.506 195.337C299.893 194.779 300.394 194.328 301.01 193.984C301.633 193.64 302.367 193.468 303.212 193.468C305.762 193.468 307.058 194.818 307.101 197.518V205.306H305.114V197.636C305.114 196.806 304.924 196.186 304.544 195.778C304.165 195.362 303.527 195.155 302.632 195.155C301.894 195.155 301.282 195.377 300.795 195.821C300.308 196.258 300.025 196.848 299.947 197.593V205.306H297.948V197.69C297.948 196 297.121 195.155 295.467 195.155C294.164 195.155 293.272 195.71 292.792 196.82V205.306H290.805V193.683H292.685Z" fill="#37474F"/>
<path d="M20.8102 92.1704C20.8102 90.3442 21.2291 88.9012 22.067 87.8413C22.9049 86.7743 24.0293 86.2407 25.4401 86.2407C26.8151 86.2407 27.9 86.7026 28.6949 87.6265L28.7809 86.4556H30.6071V102.547H28.6198V97.0044C27.8177 97.8638 26.7506 98.2935 25.4186 98.2935C24.0149 98.2935 22.8942 97.7492 22.0563 96.6606C21.2255 95.5649 20.8102 94.1147 20.8102 92.3101V92.1704ZM22.7975 92.396C22.7975 93.728 23.0768 94.7736 23.6354 95.5327C24.2011 96.2918 24.9602 96.6714 25.9127 96.6714C27.0944 96.6714 27.9967 96.1486 28.6198 95.103V89.4097C27.9895 88.3856 27.0944 87.8735 25.9342 87.8735C24.9746 87.8735 24.2119 88.2567 23.6461 89.0229C23.0804 89.7821 22.7975 90.9064 22.7975 92.396Z" fill="#37474F"/>
<path d="M66.0234 95.3394L68.2578 86.4556H70.2451L66.8613 98.0786H65.25L62.4248 89.27L59.6748 98.0786H58.0635L54.6904 86.4556H56.667L58.9551 95.1567L61.6621 86.4556H63.2627L66.0234 95.3394Z" fill="#37474F"/>
<path d="M99.4524 98.2935C97.8769 98.2935 96.595 97.7778 95.6067 96.7466C94.6184 95.7082 94.1243 94.3224 94.1243 92.5894V92.2241C94.1243 91.0711 94.3427 90.0435 94.7795 89.1411C95.2236 88.2316 95.8394 87.5226 96.6272 87.0142C97.4221 86.4985 98.2815 86.2407 99.2053 86.2407C100.716 86.2407 101.891 86.7384 102.729 87.7339C103.567 88.7293 103.986 90.1545 103.986 92.0093V92.8364H96.1116C96.1402 93.9823 96.4732 94.9097 97.1106 95.6187C97.7551 96.3205 98.5715 96.6714 99.5598 96.6714C100.262 96.6714 100.856 96.5282 101.343 96.2417C101.83 95.9552 102.256 95.5757 102.621 95.103L103.835 96.0483C102.861 97.5451 101.4 98.2935 99.4524 98.2935ZM99.2053 87.8735C98.4032 87.8735 97.7301 88.1672 97.1858 88.7544C96.6415 89.3345 96.3049 90.1509 96.176 91.2036H101.998V91.0532C101.941 90.0435 101.669 89.2629 101.182 88.7114C100.695 88.1528 100.036 87.8735 99.2053 87.8735Z" fill="#37474F"/>
<path d="M138.811 88.2388C138.51 88.1886 138.185 88.1636 137.834 88.1636C136.53 88.1636 135.646 88.7186 135.18 89.8286V98.0786H133.193V86.4556H135.127L135.159 87.7983C135.811 86.7599 136.734 86.2407 137.93 86.2407C138.317 86.2407 138.611 86.2909 138.811 86.3911V88.2388Z" fill="#37474F"/>
<path d="M172.477 83.6411V86.4556H174.646V87.9917H172.477V95.1997C172.477 95.6652 172.573 96.0161 172.767 96.2524C172.96 96.4816 173.289 96.5962 173.755 96.5962C173.984 96.5962 174.299 96.5532 174.7 96.4673V98.0786C174.177 98.2218 173.669 98.2935 173.175 98.2935C172.287 98.2935 171.617 98.0249 171.166 97.4878C170.715 96.9507 170.489 96.188 170.489 95.1997V87.9917H168.373V86.4556H170.489V83.6411H172.477Z" fill="#37474F"/>
<path d="M208.43 95.1675L211.137 86.4556H213.264L208.591 99.8726C207.868 101.806 206.718 102.773 205.143 102.773L204.767 102.741L204.026 102.601V100.99L204.563 101.033C205.236 101.033 205.759 100.897 206.131 100.625C206.511 100.352 206.822 99.8547 207.066 99.1313L207.506 97.9497L203.36 86.4556H205.53L208.43 95.1675Z" fill="#37474F"/>
<path d="M247.402 96.9292C246.629 97.8387 245.493 98.2935 243.997 98.2935C242.758 98.2935 241.812 97.9354 241.161 97.2192C240.516 96.4959 240.19 95.4289 240.183 94.0181V86.4556H242.171V93.9644C242.171 95.7261 242.887 96.6069 244.319 96.6069C245.837 96.6069 246.847 96.0412 247.348 94.9097V86.4556H249.336V98.0786H247.445L247.402 96.9292Z" fill="#37474F"/>
<path d="M282.238 98.0786H280.251V86.4556H282.238V98.0786ZM280.09 83.3726C280.09 83.0503 280.187 82.7782 280.38 82.5562C280.58 82.3341 280.874 82.2231 281.261 82.2231C281.647 82.2231 281.941 82.3341 282.142 82.5562C282.342 82.7782 282.442 83.0503 282.442 83.3726C282.442 83.6948 282.342 83.9634 282.142 84.1782C281.941 84.3931 281.647 84.5005 281.261 84.5005C280.874 84.5005 280.58 84.3931 280.38 84.1782C280.187 83.9634 280.09 83.6948 280.09 83.3726Z" fill="#37474F"/>
<path d="M312.412 92.1597C312.412 91.021 312.634 89.9969 313.078 89.0874C313.53 88.1779 314.153 87.4761 314.948 86.9819C315.75 86.4878 316.663 86.2407 317.687 86.2407C319.269 86.2407 320.548 86.7886 321.522 87.8843C322.503 88.98 322.993 90.4373 322.993 92.2563V92.396C322.993 93.5275 322.775 94.5444 322.338 95.4468C321.908 96.342 321.289 97.0402 320.48 97.5415C319.678 98.0428 318.754 98.2935 317.708 98.2935C316.133 98.2935 314.854 97.7456 313.873 96.6499C312.899 95.5542 312.412 94.104 312.412 92.2993V92.1597ZM314.41 92.396C314.41 93.6851 314.708 94.7199 315.302 95.5005C315.904 96.2811 316.706 96.6714 317.708 96.6714C318.718 96.6714 319.52 96.2775 320.115 95.4897C320.709 94.6948 321.006 93.5848 321.006 92.1597C321.006 90.8849 320.702 89.8537 320.093 89.0659C319.491 88.271 318.689 87.8735 317.687 87.8735C316.706 87.8735 315.914 88.2638 315.313 89.0444C314.711 89.825 314.41 90.9422 314.41 92.396Z" fill="#37474F"/>
<path d="M359.312 92.396C359.312 94.1649 358.908 95.59 358.098 96.6714C357.289 97.7528 356.193 98.2935 354.811 98.2935C353.4 98.2935 352.29 97.8459 351.481 96.9507V102.547H349.494V86.4556H351.309L351.406 87.7446C352.215 86.742 353.339 86.2407 354.779 86.2407C356.175 86.2407 357.278 86.7671 358.088 87.8198C358.904 88.8726 359.312 90.3371 359.312 92.2134V92.396ZM357.325 92.1704C357.325 90.8599 357.046 89.825 356.487 89.0659C355.928 88.3068 355.162 87.9272 354.188 87.9272C352.985 87.9272 352.083 88.4608 351.481 89.5278V95.0815C352.075 96.1414 352.985 96.6714 354.21 96.6714C355.162 96.6714 355.918 96.2954 356.476 95.5435C357.042 94.7843 357.325 93.66 357.325 92.1704Z" fill="#37474F"/>
<g opacity="0.8">
<path d="M37.0785 79.791H35.8969V74.083L34.1537 74.6787V73.6777L36.9271 72.6572H37.0785V79.791Z" fill="#455A64"/>
<path d="M73.0209 79.791H68.2406V78.9756L70.6088 76.3926C70.9506 76.0117 71.1931 75.6943 71.3363 75.4404C71.4828 75.1833 71.556 74.9261 71.556 74.6689C71.556 74.3304 71.46 74.057 71.2679 73.8486C71.0791 73.6403 70.8236 73.5361 70.5013 73.5361C70.1172 73.5361 69.8194 73.6533 69.6078 73.8877C69.3962 74.1221 69.2904 74.4427 69.2904 74.8496H68.1039C68.1039 74.4167 68.2015 74.0277 68.3969 73.6826C68.5954 73.3343 68.877 73.0641 69.2416 72.8721C69.6094 72.68 70.0326 72.584 70.5111 72.584C71.2012 72.584 71.7448 72.7581 72.142 73.1064C72.5424 73.4515 72.7426 73.93 72.7426 74.542C72.7426 74.8968 72.6416 75.2695 72.4398 75.6602C72.2413 76.0475 71.9141 76.4886 71.4584 76.9834L69.7201 78.8438H73.0209V79.791Z" fill="#455A64"/>
<path d="M106.071 75.6943H106.794C107.158 75.6911 107.446 75.5967 107.658 75.4111C107.873 75.2256 107.98 74.957 107.98 74.6055C107.98 74.2669 107.891 74.0049 107.712 73.8193C107.536 73.6305 107.266 73.5361 106.901 73.5361C106.582 73.5361 106.32 73.6289 106.115 73.8145C105.91 73.9967 105.807 74.236 105.807 74.5322H104.621C104.621 74.1676 104.717 73.8356 104.909 73.5361C105.104 73.2367 105.374 73.0039 105.719 72.8379C106.068 72.6686 106.457 72.584 106.886 72.584C107.596 72.584 108.153 72.763 108.556 73.1211C108.963 73.4759 109.167 73.9707 109.167 74.6055C109.167 74.9245 109.064 75.2256 108.859 75.5088C108.657 75.7887 108.395 76.0003 108.073 76.1436C108.464 76.277 108.76 76.487 108.962 76.7734C109.167 77.0599 109.269 77.4017 109.269 77.7988C109.269 78.4368 109.05 78.9447 108.61 79.3223C108.174 79.6999 107.599 79.8887 106.886 79.8887C106.203 79.8887 105.643 79.7064 105.207 79.3418C104.771 78.9772 104.552 78.4922 104.552 77.8867H105.739C105.739 78.1992 105.843 78.4531 106.052 78.6484C106.263 78.8438 106.546 78.9414 106.901 78.9414C107.269 78.9414 107.559 78.8438 107.77 78.6484C107.982 78.4531 108.088 78.1699 108.088 77.7988C108.088 77.4245 107.977 77.1364 107.756 76.9346C107.534 76.7327 107.205 76.6318 106.769 76.6318H106.071V75.6943Z" fill="#455A64"/>
<path d="M146.213 77.2568H147.096V78.209H146.213V79.791H145.026V78.209H141.955L141.921 77.4863L144.987 72.6816H146.213V77.2568ZM143.166 77.2568H145.026V74.2881L144.938 74.4443L143.166 77.2568Z" fill="#455A64"/>
<path d="M177.933 76.2656L178.319 72.6816H182.137V73.707H179.305L179.11 75.4062C179.439 75.2174 179.81 75.123 180.223 75.123C180.9 75.123 181.426 75.3395 181.8 75.7725C182.178 76.2054 182.367 76.7881 182.367 77.5205C182.367 78.2432 182.158 78.8193 181.742 79.249C181.325 79.6755 180.754 79.8887 180.028 79.8887C179.377 79.8887 178.836 79.7048 178.407 79.3369C177.98 78.9658 177.749 78.4775 177.713 77.8721H178.861C178.906 78.2171 179.03 78.4824 179.232 78.668C179.434 78.8503 179.697 78.9414 180.023 78.9414C180.387 78.9414 180.671 78.8112 180.872 78.5508C181.078 78.2904 181.18 77.9355 181.18 77.4863C181.18 77.0534 181.068 76.7116 180.843 76.4609C180.619 76.207 180.309 76.0801 179.915 76.0801C179.701 76.0801 179.518 76.1094 179.369 76.168C179.219 76.2233 179.056 76.334 178.88 76.5L177.933 76.2656Z" fill="#455A64"/>
<path d="M218.807 72.6475V73.6289H218.661C217.996 73.6387 217.466 73.821 217.069 74.1758C216.672 74.5306 216.436 75.0335 216.361 75.6846C216.742 75.2842 217.228 75.084 217.821 75.084C218.449 75.084 218.944 75.3053 219.305 75.748C219.67 76.1908 219.852 76.762 219.852 77.4619C219.852 78.1846 219.639 78.7705 219.212 79.2197C218.789 79.6657 218.232 79.8887 217.542 79.8887C216.833 79.8887 216.257 79.6266 215.814 79.1025C215.374 78.5785 215.155 77.8916 215.155 77.042V76.6367C215.155 75.39 215.457 74.4134 216.063 73.707C216.672 73.0007 217.546 72.6475 218.685 72.6475H218.807ZM217.533 76.041C217.272 76.041 217.033 76.1143 216.815 76.2607C216.6 76.4072 216.442 76.6025 216.341 76.8467V77.208C216.341 77.7354 216.452 78.1553 216.673 78.4678C216.895 78.777 217.181 78.9316 217.533 78.9316C217.884 78.9316 218.162 78.7998 218.368 78.5361C218.573 78.2725 218.675 77.9258 218.675 77.4961C218.675 77.0664 218.571 76.7165 218.363 76.4463C218.154 76.1761 217.878 76.041 217.533 76.041Z" fill="#455A64"/>
<path d="M255.264 73.3408L252.422 79.791H251.177L254.014 73.6338H250.337V72.6816H255.264V73.3408Z" fill="#455A64"/>
<path d="M291.468 74.5566C291.468 74.9049 291.379 75.2158 291.2 75.4893C291.021 75.7594 290.776 75.9727 290.467 76.1289C290.838 76.3014 291.123 76.5374 291.322 76.8369C291.523 77.1364 291.624 77.4749 291.624 77.8525C291.624 78.4775 291.413 78.974 290.99 79.3418C290.566 79.7064 290.003 79.8887 289.3 79.8887C288.594 79.8887 288.027 79.7048 287.601 79.3369C287.178 78.9691 286.966 78.4743 286.966 77.8525C286.966 77.4717 287.067 77.1299 287.269 76.8271C287.471 76.5244 287.754 76.2917 288.119 76.1289C287.813 75.9727 287.57 75.7594 287.391 75.4893C287.215 75.2158 287.127 74.9049 287.127 74.5566C287.127 73.9512 287.323 73.471 287.713 73.1162C288.104 72.7614 288.631 72.584 289.295 72.584C289.963 72.584 290.492 72.7614 290.882 73.1162C291.273 73.471 291.468 73.9512 291.468 74.5566ZM290.438 77.7939C290.438 77.4424 290.332 77.1592 290.12 76.9443C289.912 76.7262 289.635 76.6172 289.29 76.6172C288.945 76.6172 288.669 76.7246 288.46 76.9395C288.255 77.1543 288.153 77.4391 288.153 77.7939C288.153 78.1423 288.254 78.4206 288.455 78.6289C288.661 78.8372 288.942 78.9414 289.3 78.9414C289.658 78.9414 289.937 78.8405 290.135 78.6387C290.337 78.4368 290.438 78.1553 290.438 77.7939ZM290.286 74.6006C290.286 74.2913 290.197 74.0374 290.018 73.8389C289.839 73.637 289.598 73.5361 289.295 73.5361C288.993 73.5361 288.753 73.6322 288.578 73.8242C288.402 74.013 288.314 74.2718 288.314 74.6006C288.314 74.9261 288.402 75.1849 288.578 75.377C288.757 75.569 288.997 75.665 289.3 75.665C289.603 75.665 289.842 75.569 290.018 75.377C290.197 75.1849 290.286 74.9261 290.286 74.6006Z" fill="#455A64"/>
<path d="M326.813 76.8174C326.416 77.2373 325.952 77.4473 325.422 77.4473C324.797 77.4473 324.299 77.2292 323.927 76.793C323.556 76.3535 323.371 75.7773 323.371 75.0645C323.371 74.5957 323.465 74.1709 323.654 73.79C323.843 73.4092 324.111 73.113 324.46 72.9014C324.808 72.6898 325.212 72.584 325.671 72.584C326.387 72.584 326.955 72.8509 327.375 73.3848C327.795 73.9186 328.005 74.6331 328.005 75.5283V75.8604C328.005 77.1429 327.715 78.1211 327.135 78.7949C326.556 79.4688 325.692 79.8105 324.543 79.8203H324.401V78.8389H324.572C325.272 78.8291 325.809 78.6615 326.183 78.3359C326.558 78.0072 326.768 77.501 326.813 76.8174ZM325.671 76.5195C325.908 76.5195 326.131 76.4512 326.34 76.3145C326.548 76.1777 326.709 75.9889 326.823 75.748V75.2842C326.823 74.7601 326.716 74.3385 326.501 74.0195C326.286 73.7005 326.008 73.541 325.666 73.541C325.324 73.541 325.051 73.6826 324.845 73.9658C324.644 74.2458 324.543 74.6006 324.543 75.0303C324.543 75.4762 324.645 75.8359 324.85 76.1094C325.055 76.3828 325.329 76.5195 325.671 76.5195Z" fill="#455A64"/>
<path d="M364.541 76.7979C364.541 77.82 364.349 78.5915 363.965 79.1123C363.584 79.6299 363.003 79.8887 362.222 79.8887C361.453 79.8887 360.874 79.6364 360.483 79.1318C360.096 78.624 359.897 77.8737 359.888 76.8809V75.6504C359.888 74.6283 360.078 73.8617 360.459 73.3506C360.843 72.8395 361.427 72.584 362.212 72.584C362.99 72.584 363.569 72.833 363.95 73.3311C364.334 73.8291 364.531 74.5745 364.541 75.5674V76.7979ZM363.354 75.4697C363.354 74.8024 363.263 74.3141 363.081 74.0049C362.899 73.6924 362.609 73.5361 362.212 73.5361C361.825 73.5361 361.54 73.6842 361.357 73.9805C361.175 74.2734 361.079 74.7324 361.069 75.3574V76.9688C361.069 77.6328 361.162 78.1276 361.348 78.4531C361.533 78.7786 361.825 78.9414 362.222 78.9414C362.603 78.9414 362.884 78.7917 363.066 78.4922C363.249 78.1895 363.345 77.7174 363.354 77.0762V75.4697Z" fill="#455A64"/>
</g>
</g>
<defs>
<filter id="filter0_ddi_631_15708" x="-2" y="47.9702" width="379" height="235.03" filterUnits="userSpaceOnUse" color-interpolation-filters="sRGB">
<feFlood flood-opacity="0" result="BackgroundImageFix"/>
<feColorMatrix in="SourceAlpha" type="matrix" values="0 0 0 0 0 0 0 0 0 0 0 0 0 0 0 0 0 0 127 0" result="hardAlpha"/>
<feOffset/>
<feGaussianBlur stdDeviation="1"/>
<feColorMatrix type="matrix" values="0 0 0 0 0 0 0 0 0 0 0 0 0 0 0 0 0 0 0.12 0"/>
<feBlend mode="normal" in2="BackgroundImageFix" result="effect1_dropShadow_631_15708"/>
<feColorMatrix in="SourceAlpha" type="matrix" values="0 0 0 0 0 0 0 0 0 0 0 0 0 0 0 0 0 0 127 0" result="hardAlpha"/>
<feOffset dy="2"/>
<feGaussianBlur stdDeviation="1"/>
<feColorMatrix type="matrix" values="0 0 0 0 0 0 0 0 0 0 0 0 0 0 0 0 0 0 0.24 0"/>
<feBlend mode="normal" in2="effect1_dropShadow_631_15708" result="effect2_dropShadow_631_15708"/>
<feBlend mode="normal" in="SourceGraphic" in2="effect2_dropShadow_631_15708" result="shape"/>
<feColorMatrix in="SourceAlpha" type="matrix" values="0 0 0 0 0 0 0 0 0 0 0 0 0 0 0 0 0 0 127 0" result="hardAlpha"/>
<feOffset dy="0.5"/>
<feComposite in2="hardAlpha" operator="arithmetic" k2="-1" k3="1"/>
<feColorMatrix type="matrix" values="0 0 0 0 1 0 0 0 0 1 0 0 0 0 1 0 0 0 0.8 0"/>
<feBlend mode="normal" in2="shape" result="effect3_innerShadow_631_15708"/>
</filter>
<filter id="filter1_ddd_631_15708" x="324.042" y="231.194" width="41.5" height="43.4775" filterUnits="userSpaceOnUse" color-interpolation-filters="sRGB">
<feFlood flood-opacity="0" result="BackgroundImageFix"/>
<feColorMatrix in="SourceAlpha" type="matrix" values="0 0 0 0 0 0 0 0 0 0 0 0 0 0 0 0 0 0 127 0" result="hardAlpha"/>
<feOffset/>
<feGaussianBlur stdDeviation="1"/>
<feColorMatrix type="matrix" values="0 0 0 0 0 0 0 0 0 0 0 0 0 0 0 0 0 0 0.12 0"/>
<feBlend mode="normal" in2="BackgroundImageFix" result="effect1_dropShadow_631_15708"/>
<feColorMatrix in="SourceAlpha" type="matrix" values="0 0 0 0 0 0 0 0 0 0 0 0 0 0 0 0 0 0 127 0" result="hardAlpha"/>
<feOffset dy="2"/>
<feGaussianBlur stdDeviation="1"/>
<feColorMatrix type="matrix" values="0 0 0 0 0 0 0 0 0 0 0 0 0 0 0 0 0 0 0.24 0"/>
<feBlend mode="normal" in2="effect1_dropShadow_631_15708" result="effect2_dropShadow_631_15708"/>
<feColorMatrix in="SourceAlpha" type="matrix" values="0 0 0 0 0 0 0 0 0 0 0 0 0 0 0 0 0 0 127 0" result="hardAlpha"/>
<feOffset/>
<feColorMatrix type="matrix" values="0 0 0 0 0 0 0 0 0 0 0 0 0 0 0 0 0 0 0.02 0"/>
<feBlend mode="normal" in2="effect2_dropShadow_631_15708" result="effect3_dropShadow_631_15708"/>
<feBlend mode="normal" in="SourceGraphic" in2="effect3_dropShadow_631_15708" result="shape"/>
</filter>
<linearGradient id="paint0_linear_631_15708" x1="326.042" y1="233.194" x2="326.042" y2="270.672" gradientUnits="userSpaceOnUse">
<stop stop-opacity="0"/>
<stop offset="0.8" stop-opacity="0.02"/>
<stop offset="1" stop-opacity="0.04"/>
</linearGradient>
</defs>
</svg>
