<svg width="20" height="21" viewBox="0 0 20 21" fill="none" xmlns="http://www.w3.org/2000/svg">
<path d="M7.63544 3.5C5.81253 4.62153 3.99308 5.74306 2.17017 6.86459L3.42017 9.84029L6.38544 8.32987C6.2778 11.375 6.17017 14.4202 6.06253 17.4618C7.52086 17.4618 8.97919 17.4618 10.4375 17.4618" stroke="#B3A25D" stroke-miterlimit="10"/>
<path d="M12.5555 3.63184C14.3159 4.70822 16.0729 5.78461 17.8333 6.86447L16.5833 9.84017L13.618 8.32975C13.7951 11.361 13.9722 14.3888 14.1493 17.42C12.743 17.4339 11.3333 17.4478 9.927 17.4617" stroke="#B3A25D" stroke-miterlimit="10"/>
<path d="M7.03833 3.63184C7.12861 3.77767 8.1286 5.35406 9.9897 5.40961C11.948 5.46864 13.0487 3.78809 13.1182 3.67697" stroke="#B3A25D" stroke-miterlimit="10"/>
</svg>
