<svg width="13" height="13" viewBox="0 0 13 13" fill="none" xmlns="http://www.w3.org/2000/svg">
<path d="M10.3097 9.24324C10.3097 9.09892 10.3097 8.95235 10.3097 8.80577C10.3097 8.66822 10.312 8.53292 10.312 8.39762V8.31869V5.01514C10.312 4.51678 9.90797 4.11314 9.40919 4.11314H3.58627C3.08749 4.11314 2.68349 4.51678 2.68349 5.01514V8.31869C2.68349 8.55772 2.77828 8.78548 2.94981 8.9546C3.19582 9.20039 3.50051 9.22069 3.58853 9.22069C4.88401 9.2252 6.35328 9.22294 7.42533 9.22069C7.89703 9.22069 8.37099 9.22069 8.84269 9.22069C8.74339 9.44619 8.64408 9.67394 8.54478 9.89944C8.17238 9.89944 7.79773 9.89719 7.42533 9.89719C6.80693 9.89719 6.05537 9.89944 5.28124 9.89944C4.71474 9.89944 4.13471 9.89944 3.58627 9.89719C3.38992 9.89719 2.88888 9.84983 2.47134 9.43491C2.17117 9.135 2.00867 8.74038 2.00867 8.31869V5.01514C2.00867 4.14471 2.71735 3.43665 3.58853 3.43665H9.41144C10.2826 3.43665 10.9913 4.14471 10.9913 5.01514V8.39536C11.0026 8.58253 10.9981 8.85989 10.901 9.17784C10.8423 9.36952 10.7656 9.52511 10.6934 9.64463" fill="#A9AAA1"/>
<path d="M10.9439 11.4508L8.06631 9.59047C8.32361 9.46644 8.58316 9.34242 8.84045 9.22065C9.32343 9.55439 9.80642 9.88813 10.2894 10.2219C10.2939 9.7393 10.3007 9.25447 10.3052 8.7719C10.5332 8.74259 10.7588 8.71327 10.9868 8.68396C10.9733 9.60851 10.9575 10.5308 10.9439 11.4508Z" fill="#A9AAA1"/>
</svg>
