<svg width="20" height="21" viewBox="0 0 20 21" fill="none" xmlns="http://www.w3.org/2000/svg">
<path d="M8.76457 9.75952L7.7229 12.9887" stroke="#B3A25D" stroke-miterlimit="10"/>
<path d="M10.9174 9.75952L11.959 12.9887" stroke="#B3A25D" stroke-miterlimit="10"/>
<path d="M12.8467 9.40171L12.8637 9.2765L13.6102 3.77871L13.1954 3.712L13.2002 3.68443L12.0151 3.45012L12.0044 3.48598C12.0044 3.48603 12.0043 3.48608 12.0043 3.48613C11.9322 3.72651 11.7237 4.27834 11.2101 4.71194L11.2014 4.71933L11.1923 4.72632C10.4444 5.30113 9.47441 5.42483 8.67321 4.9659L12.8467 9.40171ZM12.8467 9.40171L12.8912 9.51996M12.8467 9.40171L12.8912 9.51996M12.8912 9.51996L15.4603 16.3436L12.8912 9.51996ZM7.56831 3.49004L7.568 3.489L7.55679 3.4498L6.49949 3.6894L6.48717 3.69219L6.47472 3.69436L5.99901 3.77716L6.80692 9.26751L6.82632 9.39937L6.77752 9.52339L4.09442 16.3421L4.14896 16.366L4.15014 16.3665C5.92286 17.1484 7.83899 17.5525 9.77648 17.5532L7.56831 3.49004ZM7.56831 3.49004C7.64834 3.76739 7.92155 4.53552 8.67306 4.96582L7.56831 3.49004ZM8.68652 5.10564L8.68604 5.10536C8.16982 4.80977 7.86326 4.34751 7.68804 3.96313L7.51891 3.59208L7.12143 3.68314L6.51518 3.82203L6.06493 3.92518L6.13216 4.38217L6.81479 9.02279L6.8775 9.44911L7.3084 9.45003L12.357 9.46079L12.7945 9.46172L12.8535 9.02818L13.4889 4.35665L13.5524 3.89007L13.0904 3.79875L12.4335 3.66889L12.0517 3.59343L11.8848 3.94499C11.7126 4.3078 11.41 4.75824 10.8961 5.06743L10.8961 5.06742L10.894 5.06871C10.5511 5.27734 10.1574 5.38741 9.75601 5.38683L9.75461 5.38683C9.56059 5.3871 9.3675 5.36237 9.18008 5.31339L9.0792 5.28038C8.94268 5.2357 8.8111 5.17715 8.68652 5.10564ZM4.65188 16.4404C6.32437 17.1008 8.10871 17.4319 9.90678 17.4153C11.6218 17.3993 13.3192 17.0678 14.9141 16.4372L15.3717 16.2564L15.1982 15.7959L12.985 9.92234L12.8633 9.59938L12.5182 9.59864L7.15394 9.58718L6.81261 9.58645L6.68761 9.90407L4.37025 15.7923L4.18735 16.257L4.65188 16.4404Z" fill="#231F20" stroke="#B3A25D"/>
</svg>
