<svg width="20" height="21" viewBox="0 0 20 21" fill="none" xmlns="http://www.w3.org/2000/svg">
<path d="M10 3.705C11.7257 3.705 13.3472 4.37514 14.566 5.59736C15.7882 6.81611 16.4583 8.43764 16.4583 10.1633C16.4583 11.889 15.7882 13.5106 14.566 14.7293C13.3438 15.9481 11.7257 16.6217 10 16.6217C8.27431 16.6217 6.65278 15.9515 5.43403 14.7293C4.21528 13.5071 3.54167 11.889 3.54167 10.1633C3.54167 8.43764 4.21181 6.81611 5.43403 5.59736C6.65278 4.37514 8.27431 3.705 10 3.705ZM10 2.66333C5.85764 2.66333 2.5 6.02097 2.5 10.1633C2.5 14.3057 5.85764 17.6633 10 17.6633C14.1424 17.6633 17.5 14.3057 17.5 10.1633C17.5 6.02097 14.1424 2.66333 10 2.66333Z" fill="black"/>
<path d="M10.3647 5.46558H9.323V10.5107H10.3647V5.46558Z" fill="black"/>
<path d="M14.7188 9.98975H9.323V11.0314H14.7188V9.98975Z" fill="black"/>
</svg>
