<svg width="115" height="35" viewBox="0 0 115 35" fill="none" xmlns="http://www.w3.org/2000/svg">
<path d="M108.585 23.0414C108.585 22.6973 108.585 22.3477 108.585 21.9982C108.585 21.6702 108.59 21.3476 108.59 21.0249V20.8367V12.959C108.59 11.7706 107.627 10.8081 106.437 10.8081H92.5519C91.3625 10.8081 90.3991 11.7706 90.3991 12.959V20.8367C90.3991 21.4067 90.6252 21.9498 91.0342 22.3531C91.6208 22.9392 92.3474 22.9876 92.5573 22.9876C95.6465 22.9984 99.1502 22.993 101.707 22.9876C102.831 22.9876 103.962 22.9876 105.086 22.9876C104.85 23.5254 104.613 24.0685 104.376 24.6062C103.488 24.6062 102.595 24.6008 101.707 24.6008C100.232 24.6008 98.4397 24.6062 96.5937 24.6062C95.2429 24.6062 93.8597 24.6062 92.5519 24.6008C92.0837 24.6008 90.8889 24.4879 89.8932 23.4985C89.1774 22.7833 88.7899 21.8423 88.7899 20.8367V12.959C88.7899 10.8834 90.4798 9.19492 92.5573 9.19492H106.443C108.52 9.19492 110.21 10.8834 110.21 12.959V21.0196C110.237 21.4659 110.226 22.1273 109.995 22.8855C109.855 23.3425 109.672 23.7136 109.5 23.9986" fill="#A9AAA1"/>
<path d="M110.097 28.3057L103.235 23.8694C103.849 23.5737 104.468 23.2779 105.081 22.9876C106.233 23.7834 107.385 24.5793 108.536 25.3751C108.547 24.2243 108.563 23.0682 108.574 21.9175C109.118 21.8476 109.656 21.7777 110.199 21.7078C110.167 23.9125 110.129 26.1118 110.097 28.3057Z" fill="#A9AAA1"/>
<path d="M8.14686 16.472V27.6923H5.10866V16.472H8.14686ZM9.83474 14.7855H3.42078V29.3787H9.82911V14.7855H9.83474Z" fill="#B3A25D"/>
<path d="M19.692 9.02903C19.7088 9.02903 19.7201 9.02903 19.7313 9.03466C19.8664 9.05714 20.052 9.26513 20.1533 9.45064C20.3784 9.87225 20.204 10.5131 19.9564 11.3113C19.5738 12.5143 18.8818 13.6161 17.8916 14.5942C17.3402 15.1395 17.1714 15.9602 17.4583 16.6798C17.7453 17.3993 18.4373 17.8771 19.2137 17.8884C21.2336 17.9221 22.7245 17.939 23.9173 17.939C24.6769 17.939 25.3014 17.9333 25.8302 17.9165C25.8471 17.9165 25.8753 17.9165 25.8978 17.9165C25.9596 17.9165 26.0384 17.9221 26.1116 17.9502C26.2803 18.0233 26.4773 18.2706 26.6404 18.6248C26.8711 19.1251 27.0005 19.7322 27.068 20.0582C27.3944 21.6041 27.3662 23.5323 26.9893 25.0894C26.6236 26.624 26.0497 27.3661 25.639 27.5684C25.4083 27.5853 24.885 27.6078 24.328 27.6303C22.9833 27.6865 22.0438 27.6865 21.2167 27.6865H21.0985H20.9804C20.7553 27.6865 20.5247 27.6865 20.2884 27.6865C18.4598 27.6921 14.2288 27.7483 13.3568 27.7652H13.3455C13.323 27.7652 13.2949 27.7652 13.2611 27.7596V16.0614C14.7127 15.28 16.0011 14.212 17.0139 12.9415C17.7903 11.9634 18.4148 10.8729 18.8593 9.69798C19.1012 9.25951 19.4613 9.02903 19.692 9.02903ZM19.692 7.34261C18.7861 7.34261 17.8409 7.96659 17.3233 8.99531C17.3177 9.00655 17.3177 9.01217 17.312 9.02341C17.0251 9.80479 16.5356 10.8391 15.6973 11.8903C14.3189 13.6161 12.6929 14.5099 11.7195 14.9428C11.6351 14.9821 11.5789 15.0664 11.5789 15.162V29.1424C11.6239 29.2155 11.7026 29.3167 11.8208 29.3841C11.9277 29.4404 12.0346 29.4572 12.1359 29.4572C12.2259 29.4572 12.3046 29.446 12.3665 29.4347C12.4453 29.4235 12.5297 29.4179 12.6085 29.4179C12.856 29.4179 13.1036 29.4572 13.3511 29.4572C13.368 29.4572 13.3793 29.4572 13.3961 29.4572C14.2964 29.4347 18.5329 29.3841 20.294 29.3785C20.5303 29.3785 20.761 29.3785 20.9804 29.3785C21.0592 29.3785 21.1435 29.3785 21.2223 29.3785C22.1675 29.3785 23.0734 29.3785 24.4012 29.3223C25.4252 29.283 25.9371 29.2605 26.0891 29.2099C28.6153 28.3779 29.4761 23.2793 28.7222 19.7153C28.5309 18.8103 28.1145 16.9608 26.7642 16.3987C26.4154 16.2525 26.1003 16.2357 25.9034 16.2357C25.8584 16.2357 25.819 16.2357 25.7852 16.2357C25.262 16.2469 24.6375 16.2582 23.9173 16.2582C22.6514 16.2582 21.0873 16.2413 19.2419 16.2076C19.0281 16.2019 18.9268 15.949 19.0787 15.7972C19.9845 14.8978 21.0085 13.588 21.5655 11.8229C21.8693 10.8616 22.2125 9.72047 21.6443 8.65802C21.5318 8.45565 21.0141 7.55623 20.0295 7.38196C19.917 7.34823 19.8045 7.34261 19.692 7.34261Z" fill="#B3A25D"/>
<path d="M69.0413 10.1971V21.4174H66.0087V10.1971H69.0413ZM70.7291 8.51064H64.3208V23.1038H70.7291V8.51064Z" fill="#A9AAA1"/>
<path d="M60.8044 10.1183C60.8269 10.1183 60.855 10.1183 60.8888 10.124V21.8277C59.4372 22.6091 58.1488 23.6772 57.136 24.9476C56.3596 25.9257 55.7351 27.0163 55.2906 28.1912C55.0487 28.624 54.6886 28.8601 54.4579 28.8601C54.441 28.8601 54.4298 28.8601 54.4129 28.8545C54.2779 28.832 54.0922 28.624 53.9909 28.4385C53.7659 28.0169 53.9403 27.3761 54.1879 26.5778C54.5704 25.3748 55.2625 24.273 56.2527 23.2949C56.8041 22.7496 56.9729 21.9289 56.6859 21.2094C56.399 20.4898 55.707 20.012 54.9305 20.0008C52.9107 19.967 51.4197 19.9502 50.227 19.9502C49.4674 19.9502 48.8429 19.9558 48.314 19.9727C48.2971 19.9727 48.269 19.9727 48.2465 19.9727C48.1846 19.9727 48.1058 19.967 48.0327 19.9389C47.8639 19.8659 47.667 19.6185 47.5038 19.2644C47.2732 18.7641 47.1437 18.1569 47.0762 17.8309C46.7499 16.285 46.778 14.3569 47.155 12.7997C47.5207 11.2651 48.0946 10.5231 48.5053 10.3207C48.736 10.3038 49.2592 10.2814 49.8162 10.2589C51.1609 10.2027 52.1005 10.2027 52.9276 10.2027H53.0457H53.1639C53.3889 10.2027 53.6196 10.2027 53.8559 10.2027C55.6845 10.197 59.9154 10.1408 60.7875 10.124L60.8044 10.1183ZM60.8044 8.43191C60.7875 8.43191 60.7762 8.43191 60.7594 8.43191C59.8592 8.45439 55.6226 8.50499 53.8615 8.51061C53.6252 8.51061 53.3946 8.51061 53.1751 8.51061C53.0964 8.51061 53.012 8.51061 52.9332 8.51061C51.988 8.51061 51.0821 8.51061 49.7543 8.56682C48.7304 8.60617 48.2184 8.62866 48.0665 8.67925C45.5346 9.51684 44.6794 14.6098 45.4277 18.1794C45.619 19.0845 46.0354 20.9339 47.3857 21.4961C47.7345 21.6422 48.0496 21.6591 48.2465 21.6591C48.2915 21.6591 48.3309 21.6591 48.3647 21.6591C48.8879 21.6478 49.5124 21.6366 50.2326 21.6366C51.4985 21.6366 53.0626 21.6535 54.908 21.6872C55.1218 21.6928 55.2231 21.9458 55.0712 22.0976C54.1654 22.997 53.1414 24.3068 52.5844 26.0719C52.2805 27.0331 51.9373 28.1743 52.5056 29.2367C52.6181 29.4391 53.1357 30.3385 54.1203 30.5128C54.2329 30.5297 54.3398 30.5409 54.4523 30.5409C55.3581 30.5409 56.3033 29.9169 56.821 28.8882C56.8266 28.877 56.8266 28.8713 56.8322 28.8601C57.1192 28.0787 57.6086 27.0444 58.447 25.9932C59.8254 24.2674 61.4514 23.3736 62.4247 22.9408C62.5091 22.9014 62.5654 22.8171 62.5654 22.7215V8.74671C62.5204 8.67363 62.4416 8.57244 62.3235 8.50499C62.2166 8.44877 62.1097 8.43191 62.0084 8.43191C61.9184 8.43191 61.8396 8.44315 61.7777 8.45439C61.699 8.46564 61.6146 8.47126 61.5358 8.47126C61.2995 8.47126 61.0519 8.43191 60.8044 8.43191Z" fill="#A9AAA1"/>
</svg>
