<svg width="34" height="34" viewBox="0 0 34 34" fill="none" xmlns="http://www.w3.org/2000/svg">
<path d="M4.26746 17.003C6.76433 12.3202 11.64 9.37138 16.9407 9.34189C22.2945 9.31241 27.247 12.2671 29.7675 17.003" stroke="#B6B7AD" stroke-width="1.3" stroke-miterlimit="10"/>
<path d="M4.26746 16.1243C6.76433 20.807 11.64 23.7558 16.9407 23.7853C22.2945 23.8148 27.247 20.8601 29.7675 16.1243" stroke="#B6B7AD" stroke-width="1.3" stroke-miterlimit="10"/>
<path d="M17.0173 20.8128C19.3873 20.8128 21.3086 18.8932 21.3086 16.5252C21.3086 14.1572 19.3873 12.2376 17.0173 12.2376C14.6472 12.2376 12.726 14.1572 12.726 16.5252C12.726 18.8932 14.6472 20.8128 17.0173 20.8128Z" stroke="#B6B7AD" stroke-width="1.3" stroke-miterlimit="10"/>
<line x1="31.8789" y1="5.55137" x2="4.17518" y2="26.9588" stroke="#B6B7AD" stroke-width="1.3"/>
</svg>
