<svg width="34" height="34" viewBox="0 0 34 34" fill="none" xmlns="http://www.w3.org/2000/svg">
<path d="M16.8819 22.9771C16.392 22.9771 15.9965 23.3722 15.9965 23.8617C15.9965 24.3512 16.392 24.7464 16.8819 24.7464C17.3718 24.7464 17.7673 24.3512 17.7673 23.8617C17.7673 23.3722 17.3718 22.9771 16.8819 22.9771Z" fill="black"/>
<path d="M13.3875 14.0127C13.3402 11.6359 15.359 9.80763 17.4604 9.97277C19.3257 10.1202 20.9135 11.8246 20.9076 13.9183C20.8486 14.4786 20.6892 15.263 20.1875 16.0179C19.8923 16.4602 19.4496 16.8317 18.5878 17.5807C17.8204 18.2472 17.7378 18.2472 17.5312 18.5126C17.1948 18.9431 16.8701 19.6213 16.8819 20.7537" stroke="black" stroke-miterlimit="10" stroke-linejoin="round"/>
</svg>
